<svg width="50" height="50" viewBox="0 0 50 50" fill="none" xmlns="http://www.w3.org/2000/svg">
<path d="M49.1282 34.7455C47.6153 32.7818 47.4888 30.6472 47.6615 28.4235C47.7661 27.0838 47.0486 26.0907 46.0513 25.2958C45.7449 25.0532 45.4165 24.8377 45.0298 24.5628C45.3484 24.3325 45.6257 24.1295 45.9054 23.9264C47.0972 23.0671 47.7977 21.928 47.6566 20.41C47.4621 18.2977 47.6834 16.3018 49.0747 14.4618C48.632 14.3306 48.2744 14.286 47.9801 14.1226C46.9853 13.5753 45.7911 13.1865 45.0784 12.3693C43.461 10.5096 41.79 9.1897 39.1461 10.2248C39.258 9.52648 39.3942 8.99406 39.421 8.45422C39.4769 7.30272 39.1972 6.23295 38.3046 5.46281C36.6603 4.04387 35.2691 2.47386 35.0113 0.00494241C33.08 1.47589 31.054 1.64676 28.8868 1.47589C27.0456 1.32979 25.9243 2.60016 25.0292 4.17759C24.6473 3.66003 24.3336 3.14742 23.9371 2.71406C23.1393 1.83744 22.1348 1.32236 20.9503 1.46847C18.8318 1.73344 16.8689 1.40409 15.0009 0C14.748 2.47387 13.3008 4.03891 11.659 5.5049C10.4769 6.55982 10.4891 7.98619 10.7007 9.4299C10.7299 9.63296 10.7882 9.83355 10.8442 10.0911C10.1364 10.0168 9.48941 9.90289 8.84243 9.89051C7.68953 9.8707 6.72635 10.3461 6.00397 11.2574C4.71486 12.8869 3.16064 14.0681 1.00565 14.3653C1.12726 14.6327 1.19293 14.8333 1.30238 15.0066C2.11963 16.3216 2.54771 17.7504 2.35556 19.3006C2.06612 21.6383 2.79823 23.4064 5.01403 24.4811C4.44488 24.9392 3.92194 25.3181 3.45008 25.754C2.67175 26.4721 2.25827 27.3933 2.33124 28.4606C2.47961 30.6422 2.4188 32.7645 0.876736 34.7084C3.26766 35.0229 4.82431 36.3948 6.21557 38.0614C7.22983 39.2772 8.60893 39.3565 10.0415 39.1287C10.2483 39.0965 10.4526 39.0445 10.6593 39.0073C10.6837 39.0024 10.7104 39.0247 10.798 39.0569C10.7372 39.5719 10.6593 40.1044 10.6107 40.6417C10.5061 41.813 10.8199 42.8828 11.6906 43.643C13.3348 45.0744 14.731 46.6345 14.9718 49.0093C15.7039 48.6378 16.2852 48.2193 16.9322 48.0435C17.8516 47.7934 18.8415 47.5061 19.756 47.62C22.1081 47.9147 23.8374 47.1718 24.893 45.005C25.0025 45.0298 25.0827 45.0248 25.0997 45.057C26.2162 47.1396 27.9042 47.9469 30.2221 47.6077C31.9344 47.3576 33.4741 47.9965 35.0307 49.1207C35.235 46.5626 36.7674 45.0347 38.4043 43.5415C39.348 42.6797 39.5523 41.4911 39.3918 40.2406C39.3407 39.8518 39.2507 39.4679 39.1899 39.1485C40.2479 39.0866 41.2987 39.1089 42.3154 38.933C42.8335 38.8439 43.4172 38.5021 43.7577 38.0911C45.1514 36.4121 46.7056 35.0254 49.1282 34.7455ZM9.86398 15.7049C20.026 15.7049 29.991 15.7049 40.1385 15.7049C35.0672 24.647 30.0713 33.4628 25 42.4049C19.9214 33.4455 14.9255 24.6371 9.86398 15.7049ZM40.5836 14.6055C30.12 14.6055 19.8606 14.6055 9.41402 14.6055C13.2254 8.99159 18.2772 5.92836 24.8346 5.87883C31.5355 5.82931 36.709 8.89006 40.5836 14.6055ZM25.5984 43.3112C30.8423 34.0646 35.989 24.9887 41.2354 15.7371C44.1299 21.923 44.1834 27.8762 41.0117 33.6832C37.7208 39.7081 32.4671 42.6698 25.5984 43.3112ZM24.3774 43.3013C17.1827 42.6748 11.8828 39.3713 8.66488 33.0492C5.79723 27.4156 5.95289 21.6531 8.76946 15.7644C13.9988 24.9937 19.1261 34.0373 24.3774 43.3013ZM5.65615 23.7308C4.28435 22.9879 3.18253 22.1509 3.29684 20.5462C3.43305 18.6592 3.40387 16.8267 2.45528 15.0339C4.37678 14.5361 5.58805 13.2212 6.79446 11.874C7.82574 10.7225 9.21943 10.5443 10.6618 11.3243C7.60684 14.8432 5.92614 18.949 5.65615 23.7308ZM39.2556 37.8484C42.4029 34.3493 44.0423 30.199 44.3463 25.4865C45.7887 26.0437 46.7105 27.0788 46.6886 28.2947C46.6521 30.2535 46.4989 32.2098 47.4718 33.963C46.6375 34.4335 45.847 34.7703 45.1879 35.2829C44.502 35.8178 43.8915 36.4765 43.3418 37.16C42.5197 38.1777 40.9484 38.6705 39.2556 37.8484ZM44.339 23.6119C44.0593 18.9093 42.3738 14.7961 39.2677 11.2426C40.6104 10.7696 41.8873 10.5393 42.9113 11.5918C44.2685 12.9859 45.5017 14.5064 47.574 15.0413C46.5743 16.7698 46.5986 18.5082 46.691 20.2738C46.7786 21.9181 45.9784 23.03 44.339 23.6119ZM25.8854 44.2423C30.5797 43.9427 34.6318 42.2513 38.0662 39.0519C38.701 40.3866 38.5648 42.0631 37.66 42.8952C36.2493 44.1977 34.8702 45.4978 34.3205 47.4962C32.7419 46.6245 31.1488 46.4735 29.4973 46.6221C27.7144 46.7855 26.6783 46.107 25.8854 44.2423ZM24.0417 4.87096C19.4204 5.1384 15.3974 6.92137 11.8755 10.0366C11.462 8.55823 11.2625 7.24577 12.3352 6.23047C13.7289 4.91058 15.1055 3.60554 15.6747 1.58237C17.3846 2.61748 19.1261 2.55805 20.8822 2.48376C22.4534 2.41938 23.5212 3.24153 24.0417 4.87096ZM5.66101 25.5113C5.93586 30.2064 7.63602 34.3048 10.7372 37.8831C9.28754 38.3858 7.97654 38.5492 6.93553 37.3878C5.67075 35.9738 4.3938 34.6168 2.46258 34.0522C3.35279 32.3534 3.4817 30.6472 3.30415 28.8717C3.14848 27.3091 3.98275 26.1403 5.66101 25.5113ZM25.9608 4.87344C26.3159 3.39506 27.5393 2.41691 29.0498 2.48872C30.8423 2.57292 32.613 2.60511 34.2013 1.68391C34.6975 2.55063 35.0867 3.42726 35.6534 4.16521C36.2225 4.90811 36.9741 5.50491 37.6357 6.176C38.5478 7.10215 38.6986 8.5607 37.9957 9.95736C34.5516 6.86193 30.5383 5.16069 25.9608 4.87344ZM15.6917 47.5111C14.911 45.4582 14.5802 45.0001 12.7097 43.2815C11.4571 42.1325 11.2139 40.8522 11.9363 39.2426C18.5277 43.8189 18.5423 43.2939 24.0271 44.3216C23.6161 45.7876 22.4923 46.684 20.9892 46.6221C19.1723 46.5453 17.3748 46.4908 15.6917 47.5111Z" fill="#8D64AA"/>
</svg>
