<svg width="50" height="51" viewBox="0 0 50 51" fill="none" xmlns="http://www.w3.org/2000/svg">
<path d="M40.7855 40.9636C41.4981 40.763 42.3908 40.5501 43.2591 40.2603C44.142 39.9657 45.0006 39.5992 45.8762 39.2624C45.9735 35.9961 45.8568 34.9238 45.3509 33.8763C46.8054 32.6035 48.2209 31.3653 49.7022 30.0677C48.5469 28.4977 48.5444 26.3309 46.8248 25.0853C48.4958 23.8298 48.5007 21.6878 49.7168 20.1029C48.0604 19.0753 47.2018 17.1313 45.1611 16.5766C46.2143 14.7714 45.47 12.7829 45.9249 10.8464C44.0691 10.2446 42.2886 9.66763 40.445 9.07083C40.7125 7.28539 39.2313 5.76739 38.988 3.79623C37.0884 4.22959 35.1572 3.51392 33.5884 4.42274C32.3479 2.94189 31.1342 1.49323 29.8816 0C28.1936 0.876625 26.5324 1.73839 24.949 2.56301C23.4361 1.77306 21.7773 0.906338 20.065 0.0123787C18.8245 1.48085 17.6059 2.92456 16.4482 4.29645C14.7577 4.16521 12.9262 4.02157 11.0096 3.87299C10.4186 5.67577 9.83724 7.4513 9.26566 9.19713C7.68955 9.72954 5.94317 10.3214 4.05816 10.9578C4.513 12.8126 3.79791 14.7986 4.81703 16.6782C2.83716 17.1709 2.01019 19.1545 0.290569 20.1648C1.47509 21.7348 1.49211 23.8967 2.94418 24.9912C2.071 26.7321 1.2197 28.4234 0.339218 30.1767C1.77669 31.4248 3.19957 32.6629 4.55435 33.8392C4.42544 35.5503 4.28193 37.42 4.13356 39.3837C5.90669 39.983 7.67495 40.5798 9.46024 41.184C9.64266 41.8774 9.83968 42.7912 10.1243 43.6752C10.4137 44.5766 10.7858 45.4483 11.1653 46.4487C12.9506 46.3076 14.8088 46.1615 16.7814 46.0079C17.2289 47.7067 19.1334 48.5858 20.1477 50.2945C21.6921 49.0786 23.8325 49.0761 24.8833 47.6076C26.6053 48.5016 28.269 49.3659 30.0227 50.2771C30.9226 48.5685 32.8806 47.7513 33.3306 45.9534C35.2399 46.1045 37.1006 46.2506 39.0172 46.4017C39.6229 44.5345 40.2115 42.7293 40.7855 40.9636ZM33.2917 25.0383C33.3476 29.6368 29.6822 33.495 25.1922 33.5618C20.5563 33.6312 16.7887 29.9117 16.7425 25.2166C16.6963 20.5511 20.3641 16.7326 24.9246 16.698C29.5095 16.6633 33.2357 20.3778 33.2917 25.0383ZM9.53807 15.1676C12.002 10.5839 18.0705 6.28743 25.056 6.41868C31.6547 6.5425 36.7114 9.52895 40.5496 15.1676C30.0859 15.1676 19.8315 15.1676 9.53807 15.1676ZM25.5959 43.8188C30.8399 34.5722 35.9745 25.5187 41.2136 16.2819C44.2539 22.9309 44.1542 29.2431 40.3647 35.2482C36.9911 40.5897 32.0293 43.3533 25.5959 43.8188ZM24.2558 43.695C19.1212 43.8362 11.9363 40.5005 8.44598 33.3291C5.51509 27.3091 6.46854 19.9717 8.82785 16.49C13.9697 25.5558 19.0993 34.6044 24.2558 43.695ZM21.7092 16.2522C17.3165 18.4685 15.4023 21.8661 15.8279 26.8534C13.7556 23.1909 11.8171 19.7686 9.82751 16.2522C13.8286 16.2522 17.6473 16.2522 21.7092 16.2522ZM19.0702 32.5614C22.8791 35.1888 26.671 35.2408 30.6429 32.9229C28.7774 36.2115 26.9142 39.5001 24.9636 42.9422C22.9399 39.3788 21.0038 35.9713 19.0702 32.5614ZM40.0972 16.2646C38.1246 19.7364 36.242 23.0523 34.3594 26.3681C34.5175 21.7076 32.6058 18.4017 28.3809 16.2646C32.382 16.2646 36.1569 16.2646 40.0972 16.2646ZM42.7508 33.2944C43.7821 33.5717 44.6917 34.067 44.7866 35.3572C44.8547 36.3032 44.8498 37.2565 44.8377 38.2075C44.8352 38.3659 44.6674 38.6012 44.519 38.6681C43.6921 39.0346 42.8578 39.3986 42.0016 39.6883C40.7855 40.0994 39.8807 39.6636 39.314 38.5517C40.4596 36.8034 41.5735 35.0972 42.7508 33.2944ZM11.8366 45.3071C11.5204 44.5296 11.2115 43.7693 10.9026 43.0091C10.8442 42.8679 10.7907 42.7243 10.742 42.5807C10.3115 41.3054 10.6569 40.4015 11.7612 39.7329C13.4978 40.9017 15.1955 42.0458 16.9298 43.2121C16.6841 44.589 16.042 45.2279 14.641 45.2972C13.7143 45.3443 12.7827 45.3071 11.8366 45.3071ZM38.3289 39.5744C39.9269 41.0181 40.0753 41.6595 38.3848 44.7995C37.7719 45.9386 36.2031 45.1263 35.0818 45.161C33.9897 45.1957 33.3865 44.3859 33.1725 43.1329C34.8945 41.9443 36.5777 40.7804 38.3289 39.5744ZM43.264 32.0117C43.6726 29.8919 44.0666 27.8613 44.4704 25.7762C45.2414 25.6326 46.1754 25.5633 46.6619 26.2987C47.3429 27.3239 47.9291 28.4829 48.2161 29.669C48.3134 30.0677 47.3794 30.7264 46.9148 31.2688C46.8346 31.3604 46.7567 31.4545 46.6716 31.5411C45.5406 32.7248 44.6747 32.8363 43.264 32.0117ZM31.8761 43.6925C32.6836 45.1784 32.5936 45.9114 31.4504 47.1099C30.8691 47.7191 30.2927 48.3382 29.7576 48.9053C28.7895 48.4917 27.9431 48.1698 27.1331 47.7736C25.8148 47.1297 25.4841 46.367 25.7808 44.9654C27.8117 44.5419 29.8062 44.1259 31.8761 43.6925ZM33.0752 7.04271C33.4011 5.64605 34.0335 5.03688 35.2642 4.97497C38.2584 4.82143 38.2827 4.83629 39.2215 7.50578C39.7202 8.92472 39.4721 9.66267 38.2535 10.5715C36.5363 9.40018 34.8459 8.24868 33.0752 7.04271ZM20.3933 48.9053C20.026 48.5115 19.722 48.1772 19.4058 47.8503C19.0896 47.5235 18.7564 47.2139 18.4475 46.8796C17.5038 45.8519 17.4673 44.849 18.2675 43.7767C20.3009 44.1779 22.2929 44.5717 24.3214 44.9703C24.6449 46.3695 24.246 47.2312 22.918 47.8231C22.0983 48.1871 21.2641 48.5313 20.3933 48.9053ZM43.2397 18.1441C44.7574 17.3195 45.4579 17.4161 46.6546 18.6369C48.4253 20.4422 48.4253 20.4422 47.2602 22.9681C46.6619 24.2607 45.8252 24.6594 44.468 24.3449C44.0593 22.2821 43.6556 20.2515 43.2397 18.1441ZM42.7191 16.8664C41.5371 15.0735 40.4036 13.35 39.2507 11.6017C40.085 10.3189 40.8901 10.0341 42.3348 10.6111C43.1424 10.9355 44.1663 11.1163 44.6455 11.7255C45.0298 12.2133 44.7452 13.2509 44.7477 14.0433C44.755 15.8114 44.3707 16.3339 42.7191 16.8664ZM31.7861 6.48553C30.1005 6.16113 28.4636 5.78473 26.8096 5.54452C25.5497 5.3588 25.326 5.20031 25.6957 3.95967C25.8392 3.48173 26.2137 2.94932 26.6321 2.70664C27.5831 2.15937 28.6266 1.77553 29.456 1.40408C30.1759 2.06774 30.7961 2.60264 31.375 3.1821C32.5255 4.33607 32.5936 5.11116 31.7861 6.48553ZM18.0583 6.45581C17.5986 5.60395 17.3019 4.59361 18.1264 3.68727C18.8512 2.89236 19.7123 2.22375 20.5563 1.45856C21.2908 1.78049 22.1664 2.17918 23.0542 2.55559C23.9858 2.94932 24.3093 3.71698 24.3652 4.67037C24.3944 5.18298 24.229 5.41575 23.6769 5.49747C21.8405 5.76739 20.0187 6.11408 18.0583 6.45581ZM16.8398 7.04024C15.0496 8.26851 13.3422 9.43981 11.6298 10.6136C10.3505 9.45963 10.1948 8.88511 10.815 7.34235C11.1288 6.55735 11.2966 5.48262 11.8852 5.10374C12.486 4.71496 13.5173 4.99973 14.3588 5.00964C15.8498 5.0245 16.5309 5.60396 16.8398 7.04024ZM10.7396 38.6953C9.89805 39.9335 9.1562 40.1885 7.73576 39.6636C5.09431 38.6879 4.97513 38.4947 5.24754 35.6271C5.36673 34.3567 6.05506 33.651 7.2566 33.4653C8.42896 35.2284 9.57456 36.947 10.7396 38.6953ZM6.6534 18.1986C6.24964 20.306 5.85318 22.3886 5.45185 24.4811C3.89763 24.6594 3.24092 24.2929 2.65231 22.8715C2.32638 22.084 1.65508 21.2098 1.80101 20.5214C1.95668 19.7835 2.87608 19.1991 3.48901 18.5775C4.54705 17.5077 5.35699 17.4334 6.6534 18.1986ZM1.64048 29.9637C1.86182 29.4437 2.04424 29.0277 2.21936 28.6092C2.40908 28.1585 2.57934 27.7003 2.78365 27.2546C3.3601 25.9892 4.2041 25.5979 5.46645 25.9223C5.8848 28.0223 6.29585 30.0801 6.71177 32.1652C4.09708 33.7699 3.25794 31.031 1.64048 29.9637ZM10.6666 11.6017C9.49186 13.3945 8.33653 15.1602 7.17877 16.9283C5.63914 16.428 5.20863 15.8411 5.20377 14.2117C5.19403 11.5967 5.19403 11.5967 7.63847 10.6879C9.06865 10.1555 9.80806 10.3932 10.6666 11.6017Z" fill="#8D64AA"/>
</svg>
