<svg width="48" height="56" viewBox="0 0 48 56" fill="none" xmlns="http://www.w3.org/2000/svg">
<path d="M23.9464 0C22.5795 2.26833 20.6555 3.66499 18.2306 4.34103C15.7302 5.03689 14.5165 6.79263 14.193 9.31107C14.1589 9.58099 14.0981 9.84596 14.0373 10.1728C13.3466 9.94006 12.7093 9.68003 12.0526 9.51164C10.4108 9.08818 8.83955 9.25657 7.56018 10.4675C5.54625 12.3768 3.34748 13.8353 0.421456 13.8329C0.723058 14.7219 1.11952 15.4796 1.21924 16.277C1.37977 17.5375 1.60111 18.8821 1.34086 20.0906C0.657387 23.2652 1.13411 25.8827 4.10878 27.683C3.48612 28.2625 2.89508 28.7602 2.36728 29.3199C1.33113 30.4169 0.735218 31.7542 1.03196 33.2622C1.59381 36.11 1.9173 38.9058 0.282815 41.7041C3.31586 41.7189 5.5122 43.128 7.51153 45.0224C8.92712 46.367 10.6346 46.4884 12.4199 45.9287C12.9355 45.7678 13.4366 45.5598 14.0203 45.3468C14.1516 46.0154 14.2441 46.6741 14.4119 47.3105C14.8765 49.0836 15.8931 50.3317 17.6347 50.9904C18.9238 51.4782 20.225 52.0131 21.3925 52.7412C22.4287 53.3875 23.2873 54.331 24.2237 55.1407C24.1604 55.2398 24.0948 55.3388 24.0315 55.4379C24.214 55.2076 24.4012 54.9847 24.5764 54.7495C25.7171 53.2191 27.1205 51.976 28.9593 51.5005C31.9656 50.7254 33.6487 48.9003 33.8871 45.7331C33.8968 45.6167 33.9528 45.5053 33.9771 45.4236C34.8989 45.6737 35.777 45.9708 36.6794 46.1467C37.9879 46.3992 39.1943 46.0872 40.2426 45.2304C40.6196 44.9233 40.9991 44.6188 41.3518 44.2869C42.8598 42.868 44.6013 41.974 46.6663 41.7809C46.9581 41.7536 47.2427 41.6744 47.4957 41.6273C47.177 40.5056 46.7149 39.4382 46.6055 38.3363C46.4887 37.1377 46.5349 35.8674 46.8025 34.6985C47.4276 31.977 46.6687 29.8696 44.4894 28.2353C44.2997 28.0941 44.127 27.9307 44.0175 27.839C44.7618 27.0392 45.528 26.3037 46.1847 25.4791C46.8973 24.5851 47.2014 23.4832 46.9776 22.3564C46.4085 19.4839 46.0704 16.6484 47.7097 13.8378C44.7253 13.8031 42.5363 12.4511 40.5661 10.5641C39.0703 9.13028 37.2728 9.05599 35.4024 9.66021C34.9451 9.80879 34.5049 10.0044 34.0039 10.1976C33.8239 9.39525 33.6925 8.61519 33.4712 7.86239C33.0018 6.26267 32.0021 5.17804 30.4357 4.58619C26.6195 3.14001 26.6268 3.12019 23.9464 0ZM5.65084 27.8787C5.65328 17.4582 13.8184 9.06591 23.9634 9.06096C34.179 9.05353 42.3611 17.431 42.3539 27.891C42.3466 38.1233 34.0987 46.4735 23.9975 46.471C13.9035 46.4686 5.65084 38.106 5.65084 27.8787ZM45.9901 40.8671C43.6721 41.1593 41.7531 42.4495 40.0578 44.1185C38.506 45.6439 36.2124 45.431 34.4927 44.334C37.0855 42.5832 39.1749 40.3669 40.7364 37.6503C42.3076 34.9189 43.1249 31.9399 43.3584 28.7454C45.5109 30.0059 46.423 31.8532 45.939 33.8194C45.7055 34.7654 45.5182 35.7584 45.5426 36.7266C45.5766 38.0862 45.8247 39.4407 45.9901 40.8671ZM4.65361 28.7479C5.17168 35.434 8.15852 40.5848 13.4974 44.3439C11.6683 45.483 9.45249 45.6167 7.88367 44.069C6.2127 42.4173 4.30823 41.1642 1.95379 40.8671C2.14594 39.6636 2.45727 38.5245 2.4743 37.3829C2.49375 36.1992 2.26512 35.0056 2.07783 33.8293C1.73002 31.6279 2.5424 29.9241 4.65361 28.7479ZM43.3608 26.7767C42.8354 20.098 39.8535 14.9423 34.5049 11.1881C36.4726 10.0069 38.5425 9.84842 40.3983 11.7057C41.7288 13.0355 43.2708 14.026 45.112 14.4767C45.4501 14.5584 45.7834 14.6575 46.2114 14.7714C45.2288 17.1363 45.4696 19.4566 45.922 21.8067C46.333 23.9561 45.4501 25.6277 43.3608 26.7767ZM2.08513 14.65C4.57335 14.3975 6.48511 12.716 8.43823 11.0643C9.76138 9.94748 11.9577 10.0812 13.4828 11.2376C10.89 12.9785 8.8128 15.2048 7.25128 17.9213C5.68976 20.6379 4.88954 23.5995 4.65361 26.7445C2.80265 25.9124 1.73002 23.9908 2.02432 22.1385C2.17026 21.2322 2.44268 20.3233 2.43295 19.4195C2.41349 17.8767 2.21891 16.3364 2.08513 14.65ZM32.8412 45.322C32.9215 47.6003 31.9413 49.3585 30.1584 49.9701C27.8162 50.7725 25.5955 51.7283 24.1677 53.6871C22.9321 52.7709 21.8279 51.8249 20.602 51.0869C19.7337 50.562 18.7219 50.2673 17.7465 49.9578C16.3261 49.5071 14.9056 47.4492 15.2559 45.3641C21.0933 48.1822 26.9357 48.1772 32.8412 45.322ZM32.8412 10.2273C29.9906 8.80341 27.0719 8.07785 23.9732 8.07538C20.8817 8.07538 17.98 8.84303 15.1829 10.1976C15.0321 7.9565 16.0731 6.18098 18.0214 5.50741C20.3029 4.71746 22.4554 3.76158 23.888 1.78051C24.8561 2.58284 25.6928 3.44213 26.6803 4.04389C27.6751 4.65059 28.8134 5.02203 29.9055 5.45291C31.8999 6.24039 32.9264 7.83516 32.8412 10.2273Z" fill="#8D64AA"/>
<path d="M24.0217 43.6009C32.5298 43.6158 39.5615 36.4988 39.5664 27.8687C39.5713 19.048 32.6612 11.9657 24.0363 11.9508C15.4091 11.936 8.45276 19.0109 8.44547 27.8093C8.43817 36.4963 15.431 43.5861 24.0217 43.6009ZM11.9625 25.4543C11.7607 18.897 17.0436 13.1321 23.4429 12.9265C30.1997 12.7111 35.8134 17.956 36.0299 24.6842C36.2512 31.5263 31.0559 37.2343 24.4231 37.4373C17.6808 37.6453 12.1766 32.3509 11.9625 25.4543ZM35.4826 18.7558C40.2328 24.6792 39.3767 33.8689 33.6706 38.8785C27.5972 44.2101 18.6221 43.747 13.3514 37.9078C7.77416 31.7269 8.76896 23.1265 12.5268 18.7632C8.89544 26.274 12.2836 32.8388 16.1631 35.7807C20.7649 39.2723 27.0329 39.3515 31.6907 35.8797C33.9989 34.1586 35.6115 31.8953 36.4458 29.102C37.5087 25.5335 37.1244 22.0816 35.4826 18.7558Z" fill="#8D64AA"/>
</svg>
