<svg width="48" height="48" viewBox="0 0 48 48" fill="none" xmlns="http://www.w3.org/2000/svg">
<path d="M0.360645 30.5036C1.68867 30.8726 2.70536 31.8235 3.4618 33.1112C4.03338 34.0819 5.00386 34.3023 6.15432 34.4014C5.24952 35.7336 5.69463 36.9149 6.19567 38.2001C6.58727 39.2079 6.58484 40.3718 6.77212 41.558C8.14635 41.2385 9.52302 41.7462 10.9483 42.3182C11.7023 42.6203 12.668 42.3727 13.6141 42.3727C13.5655 43.6629 14.5554 44.4776 15.6426 45.3493C16.455 46.0006 16.9998 47.001 17.7319 47.9321C18.7657 46.788 20.3418 46.6692 21.9325 46.4141C22.6622 46.2977 23.2946 45.5424 24.0437 45.0298C24.5885 46.216 25.7925 46.4587 27.1448 46.6494C28.2004 46.7979 29.1953 47.3724 30.3311 47.7984C30.336 47.786 30.4114 47.5284 30.5622 47.3328C31.107 46.6147 31.5691 45.7752 32.2599 45.2477C33.3277 44.4281 34.2106 43.6034 34.0817 41.8923C35.6043 43.0339 36.8496 42.3158 38.1947 41.7908C39.0824 41.4441 40.1283 41.5184 41.2253 41.3896C40.8069 39.8369 41.5001 38.3907 42.0352 36.8628C42.2857 36.1472 41.9768 35.2284 41.9185 34.3469C43.1516 34.4261 43.9567 33.5842 44.7715 32.5317C45.4696 31.6303 46.4814 30.984 47.4251 30.1619C46.3549 29.1565 46.2747 27.5419 45.9804 25.9521C45.8369 25.1745 45.1096 24.5108 44.6232 23.758C45.5961 23.2702 46.0923 22.2896 46.1409 21.0192C46.192 19.6696 46.4839 18.4067 47.7097 17.4681C46.119 16.9753 45.0439 16.0789 44.3216 14.7293C43.7524 13.6694 42.6725 13.6323 41.5171 13.4812C42.563 11.9385 41.8285 10.5839 41.3736 9.15255C41.0988 8.28088 41.1693 7.2953 41.0769 6.26267C40.8823 6.28 40.5515 6.37163 40.2426 6.32457C39.3938 6.19333 38.5036 6.13637 37.7252 5.81197C36.5407 5.31918 35.417 5.23003 34.1109 5.79463C34.1376 4.18006 33.0893 3.38516 32.0045 2.5011C31.2286 1.86963 30.7422 0.86672 30.1049 0C28.9545 0.809764 27.5827 1.32732 25.9919 1.46599C25.216 1.53285 24.4961 2.29308 23.7202 2.75863C23.2046 1.80772 22.2219 1.39665 20.9547 1.21836C19.7824 1.05492 18.6611 0.495268 17.4182 0.076766C17.0898 1.47342 15.8032 2.35994 14.6089 3.39258C14.0106 3.91013 13.7819 4.86848 13.3514 5.68815C12.308 4.97744 11.177 5.35385 9.93651 5.86646C8.92225 6.28496 7.74503 6.29733 6.55078 6.50782C6.98373 7.96639 6.29782 9.3581 5.76759 10.834C5.50004 11.5843 5.77975 12.5377 5.81623 13.4837C4.49794 13.3797 3.71232 14.3875 2.86102 15.4994C2.20918 16.3513 1.19249 16.9134 0.297409 17.6365C1.29221 18.6444 1.5257 20.0856 1.73975 21.611C1.85649 22.453 2.57158 23.2083 3.0629 24.0874C1.89541 24.6569 1.73731 25.9694 1.54516 27.3859C1.40166 28.4358 0.796024 29.4115 0.360645 30.5036ZM23.9294 15.0141C23.9294 15.0116 23.9294 15.0091 23.9294 15.0066C25.379 15.0066 26.8286 14.972 28.2734 15.0339C28.6091 15.0487 29.0688 15.3112 29.239 15.601C30.7397 18.1565 32.204 20.7344 33.6317 23.3321C33.7947 23.6293 33.802 24.179 33.6414 24.4737C32.2015 27.1011 30.7203 29.7037 29.2074 32.289C29.0493 32.5565 28.6115 32.8016 28.3002 32.8066C25.3741 32.8462 22.4457 32.8165 19.5197 32.8388C18.9992 32.8437 18.7122 32.6605 18.4543 32.2024C17.012 29.6121 15.5186 27.0516 14.0933 24.4514C13.9352 24.1617 13.9595 23.6194 14.1225 23.3197C15.5526 20.722 17.0169 18.1442 18.52 15.591C18.6903 15.3038 19.1573 15.0537 19.4953 15.0388C20.9717 14.9794 22.4506 15.0141 23.9294 15.0141ZM24.5593 5.26471C31.557 5.43062 37.5817 10.0564 39.2503 14.0384C36.8593 14.0384 34.466 13.8774 32.1042 14.0879C30.1122 14.2637 29.0128 13.5803 28.1688 11.7552C27.1497 9.55125 25.8193 7.49837 24.5593 5.26471ZM23.2119 42.5634C16.6496 42.5287 10.3354 37.8905 8.4893 33.7996C11.2207 33.7996 13.9327 33.8615 16.6399 33.7699C17.7952 33.7303 18.4641 34.0324 19.0259 35.1244C20.3126 37.6132 21.7647 40.0128 23.2119 42.5634ZM39.3743 33.7946C36.9323 38.6334 28.7428 43.4128 24.6177 42.447C26.1914 39.6735 27.748 36.9148 29.3315 34.1711C29.4409 33.9829 29.7547 33.812 29.9736 33.8095C33.0699 33.7872 36.1661 33.7946 39.3743 33.7946ZM23.0829 5.31422C23.0684 5.40337 23.0732 5.5049 23.0343 5.57671C21.5166 8.25859 20.0037 10.9454 18.4543 13.6075C18.3254 13.8304 17.9411 14.0087 17.6663 14.0211C16.5231 14.0656 15.3775 14.0384 14.2319 14.0384C12.3153 14.0384 10.3986 14.0384 8.43822 14.0384C11.0602 8.99656 17.6541 5.19783 23.0829 5.31422ZM40.0651 15.2023C43.0689 20.4348 42.8549 28.0669 40.031 32.5565C38.4476 29.7731 36.8739 27.0243 35.3319 24.2582C35.2297 24.0725 35.2638 23.7135 35.3757 23.5153C36.9031 20.774 38.4549 18.0476 40.0651 15.2023ZM7.73773 15.284C9.30169 18.0402 10.8583 20.7691 12.3907 23.5104C12.5001 23.706 12.5172 24.07 12.4126 24.2607C10.8729 27.0318 9.30655 29.7879 7.728 32.5788C4.73874 27.7672 4.83603 19.833 7.73773 15.284ZM28.3561 13.9765C25.3036 13.9765 22.4287 13.9765 19.4029 13.9765C20.9158 11.3119 22.363 8.76625 23.8832 6.08932C25.4106 8.78358 26.8505 11.3243 28.3561 13.9765ZM28.3731 33.8293C26.8384 36.536 25.3912 39.0866 23.8759 41.7561C22.3435 39.0445 20.8963 36.4864 19.3981 33.8293C22.436 33.8293 25.3133 33.8293 28.3731 33.8293ZM39.0216 15.0562C37.5039 17.7257 36.0591 20.2664 34.5535 22.9136C33.0285 20.2193 31.5935 17.691 30.1025 15.0562C33.1258 15.0562 35.9935 15.0562 39.0216 15.0562ZM8.73253 32.7942C10.2551 30.1099 11.6902 27.579 13.2031 24.907C14.7305 27.6087 16.1729 30.1594 17.6638 32.7942C14.6186 32.7942 11.7607 32.7942 8.73253 32.7942ZM38.9997 32.7496C35.9764 32.7496 33.1185 32.7496 30.1195 32.7496C31.6227 30.0975 33.0528 27.5716 34.5584 24.9145C36.0689 27.5815 37.5039 30.1123 38.9997 32.7496ZM8.75199 15.071C11.8069 15.071 14.6673 15.071 17.6517 15.071C16.1485 17.7207 14.7013 20.2689 13.2006 22.9161C11.6902 20.254 10.2649 17.738 8.75199 15.071ZM34.1376 7.23835C34.9476 6.2701 35.6554 6.01256 36.4191 6.3122C37.6036 6.77527 38.8003 7.20863 39.924 7.62961C40.2305 8.51614 40.5272 9.4943 40.9042 10.4427C41.3955 11.6859 41.252 12.5551 40.2378 13.5605C38.7249 10.9256 36.6113 8.8975 34.1376 7.23835ZM24.5107 4.24692C24.8439 3.19695 25.2623 2.46395 26.2668 2.2807C27.4878 2.06031 28.7039 1.82754 29.8082 1.622C30.6789 2.407 31.5886 3.22666 32.4983 4.04386C33.2936 4.75704 33.4201 5.51729 32.8656 6.53259C30.2752 5.20775 27.5583 4.28159 24.5107 4.24692ZM23.2143 4.2494C20.191 4.32864 17.4255 5.16812 14.7548 6.5103C14.5797 5.49748 14.5481 4.66789 15.307 4.01166C16.2556 3.19199 17.1847 2.35252 18.0408 1.59229C18.9773 1.80525 19.9526 2.11231 20.9474 2.23613C22.2487 2.39709 22.723 2.72397 23.2143 4.2494ZM43.2173 23.2529C43.1054 20.1748 42.332 17.3641 41.0039 14.707C41.9671 14.2092 42.7406 14.4247 43.3997 15.1701C44.2316 16.1111 45.0537 17.0645 45.8588 17.9881C45.635 18.9069 45.3018 19.89 45.168 20.9028C44.9807 22.2945 44.7083 22.7403 43.2173 23.2529ZM14.8302 41.3302C17.4401 42.7466 20.2421 43.445 23.2362 43.6332C22.8811 44.6856 22.4141 45.4137 21.3171 45.5746C20.1739 45.743 19.0478 46.0129 18.0068 46.2209C17.2382 45.5276 16.4453 44.7475 15.5891 44.0517C14.66 43.2989 14.4484 42.7144 14.8302 41.3302ZM7.47748 34.3741C9.07305 36.9198 11.1259 38.9975 13.6822 40.6591C12.8698 41.3376 12.1474 41.7833 11.1405 41.3921C10.0314 40.9612 8.89549 40.5996 7.82772 40.2282C7.52612 39.2748 7.25858 38.2149 6.85968 37.2095C6.38539 36.0159 6.45106 35.4563 7.47748 34.3741ZM6.78671 33.1879C5.81137 33.4083 5.00629 33.4579 4.35931 32.6853C3.55179 31.7195 2.72968 30.7661 1.97324 29.8771C2.17513 28.8865 2.43781 27.8316 2.59104 26.7618C2.7686 25.5237 3.19424 24.9912 4.5247 24.647C4.68036 27.6211 5.40762 30.4392 6.78671 33.1879ZM40.9918 33.1434C42.3709 30.4788 43.0738 27.6261 43.2392 24.5331C44.2243 24.9467 44.971 25.3429 45.1291 26.435C45.3018 27.6286 45.5669 28.8073 45.7809 29.9216C45.1266 30.6571 44.3678 31.4297 43.7062 32.2816C42.906 33.3118 42.3587 33.5371 40.9918 33.1434ZM13.653 7.21359C11.0699 8.84798 9.07792 10.9776 7.42154 13.5084C6.8232 12.7358 6.33431 12.0697 6.64564 11.151C7.05913 9.92518 7.48234 8.70434 7.86908 7.57265C8.78848 7.27301 9.77841 7.02043 10.71 6.63164C11.9577 6.10665 12.4928 6.15619 13.653 7.21359ZM4.5247 23.2652C3.61259 22.9507 2.86346 22.5892 2.6786 21.5516C2.45483 20.306 2.20431 19.0654 1.98784 17.9287C2.69563 17.119 3.45936 16.3092 4.14769 15.4375C4.89197 14.4916 5.5949 14.2613 6.76239 14.7565C5.38086 17.3889 4.6828 20.2169 4.5247 23.2652ZM24.5861 43.6059C27.5754 43.492 30.3263 42.6897 32.9312 41.3475C33.3058 42.4371 33.1282 43.2543 32.4545 43.8362C31.5108 44.6509 30.5719 45.4756 29.7158 46.2209C28.7623 46.0129 27.7529 45.7232 26.7265 45.5895C25.4885 45.4335 24.9655 45.0422 24.5861 43.6059ZM40.4105 34.4038C41.0039 35.1641 41.4393 35.8995 41.038 36.9248C40.6026 38.0416 40.2645 39.1956 39.9046 40.2653C38.9827 40.5625 37.9685 40.82 37.0101 41.2187C35.777 41.7288 35.2346 41.6744 34.2228 40.7061C35.3197 39.7701 36.4896 38.9034 37.499 37.8732C38.5352 36.8183 39.4132 35.6049 40.4105 34.4038Z" fill="#8D64AA"/>
</svg>
