<svg width="50" height="56" viewBox="0 0 50 56" fill="none" xmlns="http://www.w3.org/2000/svg">
<path d="M24.8589 55.75C26.3523 53.1795 28.5462 51.9067 31.1098 51.0944C31.8808 50.8518 32.5205 50.2005 33.2502 49.7919C33.6345 49.5764 34.1161 49.2966 34.4955 49.3684C35.522 49.5641 36.5168 49.9306 37.5213 50.2302C37.7718 49.2174 38.0321 48.1575 38.2947 47.1001C38.4261 46.5702 38.7861 46.3919 39.2823 46.1888C40.1579 45.8322 41.07 45.3964 41.7559 44.7575C43.5582 43.0785 45.5843 42.0063 48.036 41.8205C48.1528 41.8106 48.2646 41.7611 48.4495 41.7091C47.6249 39.936 47.1215 38.1209 47.3842 36.1695C47.4912 35.3796 47.7125 34.602 47.7636 33.8096C47.8147 33.0271 47.6809 32.2321 47.6955 31.4447C47.7028 30.9989 47.7052 30.4343 47.9557 30.1372C48.6514 29.3076 49.4759 28.5894 49.887 28.2452C49.2059 27.3414 48.4933 26.4598 47.8609 25.5237C47.6736 25.2464 47.6493 24.813 47.6493 24.4515C47.6493 23.5129 47.8925 22.5323 47.6979 21.6458C47.1361 19.0952 47.1993 16.6535 48.3498 14.2836C48.3863 14.2093 48.3765 14.1103 48.3984 13.9493C45.6353 13.8948 43.4536 12.617 41.4737 10.7697C40.8219 10.1605 39.8417 9.92279 39.0317 9.47705C38.7715 9.33342 38.4626 9.09817 38.3823 8.83815C38.0442 7.73618 37.784 6.60944 37.5116 5.55947C36.4827 5.84673 35.4222 6.18599 34.3399 6.41381C34.0456 6.47572 33.6515 6.25037 33.3572 6.06712C32.6932 5.65605 32.1192 5.00725 31.409 4.7819C28.7432 3.93252 26.3717 2.7092 24.8443 0.00256348C23.3192 2.74635 20.8699 3.92014 18.2455 4.88838C17.5402 5.1484 16.9613 5.75015 16.2973 6.14637C16.0176 6.31228 15.6357 6.4881 15.3511 6.42372C14.2712 6.17856 13.2131 5.8393 12.1916 5.54709C11.9265 6.58716 11.6954 7.69408 11.3427 8.75891C11.2381 9.0734 10.8076 9.31113 10.4817 9.50181C9.78364 9.90793 8.92992 10.1234 8.35833 10.6558C6.34441 12.5279 4.15536 13.9369 1.22204 13.9493C1.39473 14.3728 1.51391 14.6798 1.64282 14.9844C2.3798 16.7278 2.56709 18.5306 2.21441 20.3928C1.94199 21.8365 1.56256 23.2727 2.14874 24.7437C2.22657 24.9393 2.02225 25.3108 1.86416 25.5361C1.21231 26.4623 0.528843 27.3661 0.115356 27.9258C0.480198 28.4062 1.19285 29.2853 1.8301 30.2139C2.02225 30.4938 2.08306 30.9197 2.08063 31.2763C2.07576 32.2148 1.80092 33.1979 1.9955 34.0795C2.55492 36.6277 2.52817 39.0693 1.38014 41.4466C1.34365 41.5209 1.35338 41.62 1.33392 41.7636C1.87875 41.8428 2.41385 41.9047 2.94409 42.0038C4.65154 42.3257 6.11821 43.1305 7.40245 44.3093C8.38995 45.2156 9.37502 46.1195 10.7784 46.3324C10.9949 46.3646 11.2649 46.7014 11.3379 46.949C11.6614 48.0287 11.9192 49.1307 12.2111 50.2525C13.0429 49.9826 13.9404 49.6681 14.8525 49.4031C15.5165 49.2099 16.054 49.2941 16.6183 49.881C17.1632 50.4481 17.9318 50.8988 18.6833 51.1316C21.2251 51.924 23.3655 53.2315 24.8589 55.75ZM24.9172 42.712C16.8932 42.7244 10.3382 36.1324 10.2555 28.0793C10.1777 20.4349 16.1538 12.4957 25.8683 13.0554C33.744 13.5085 39.416 20.1649 39.4355 27.9456C39.4598 36.021 32.8951 42.6996 24.9172 42.712ZM9.04423 15.7595C8.76208 14.7442 8.90802 13.8255 9.61825 13.0034C11.1603 11.2179 12.6051 9.39037 12.9018 6.86698C13.325 6.98832 13.6339 7.13195 13.9526 7.15919C15.1128 7.25824 16.2802 7.40682 17.438 7.3672C18.4498 7.33006 19.4519 6.94375 20.4589 6.9388C21.1472 6.93632 21.838 7.32263 22.5263 7.53807C22.5215 7.65693 22.519 7.7758 22.5142 7.89219C22.1469 8.0581 21.7893 8.26364 21.4075 8.38498C18.9436 9.16503 16.8786 10.319 16.7618 13.3649C16.7594 13.407 16.6962 13.4441 16.6013 13.5506C14.2615 12.2605 12.2305 12.8399 10.4258 14.7294C10.0415 15.1305 9.52825 15.4029 9.04423 15.7595ZM0.952057 27.8787C2.67167 26.5217 3.62269 24.813 4.23806 22.8716C4.42048 22.2921 4.61263 21.678 4.96288 21.2025C5.34474 20.685 5.91389 20.3135 6.40035 19.8777C6.49035 19.9495 6.58034 20.0238 6.67276 20.0956C6.53899 20.9995 6.45386 21.9132 6.25928 22.8022C5.84093 24.714 6.58277 26.1478 7.95214 27.3562C8.14429 27.5271 8.34373 27.6905 8.56994 27.8862C8.3559 28.0719 8.20023 28.2155 8.03727 28.3468C6.49277 29.6122 5.80687 31.1772 6.30062 33.2153C6.49764 34.0349 6.55359 34.8893 6.68979 35.8402C5.41285 35.4563 4.79748 34.6268 4.46426 33.5694C3.78322 31.41 2.89544 29.3844 0.952057 27.8787ZM27.1695 7.83523C28.2324 7.05766 28.8794 6.81745 29.7818 6.99328C32.1022 7.44397 34.4104 7.88723 36.4754 6.93632C37.2586 8.48156 37.9323 9.93269 38.7228 11.3145C39.1096 11.993 39.7322 12.5304 40.2041 13.1668C40.744 13.8948 40.9654 14.7195 40.7368 15.8041C40.1141 15.341 39.5206 15.0166 39.0755 14.5486C37.3681 12.7508 35.432 12.4214 33.2283 13.4565C33.1578 13.4887 33.0654 13.4689 32.9316 13.4763C32.7929 10.8687 31.499 9.2616 28.9937 8.64747C28.3978 8.50384 27.853 8.14725 27.1695 7.83523ZM22.5677 47.9272C21.5121 48.7766 20.5197 48.8434 19.43 48.7196C17.9147 48.5463 16.3848 48.4373 14.8598 48.415C14.2298 48.4076 13.595 48.6998 12.8848 48.8732C12.6051 46.6841 11.5446 44.968 10.1631 43.4153C9.8031 43.0092 9.41393 42.5733 9.22178 42.0781C8.98829 41.4813 8.94937 40.8052 8.82533 40.1614C8.92505 40.1267 9.02477 40.0921 9.1245 40.0599C9.60852 40.4189 10.1582 40.7136 10.5644 41.1495C12.3108 43.0141 14.3028 43.3534 16.5697 42.2836C16.6062 42.2663 16.6718 42.3133 16.7764 42.348C16.9102 44.8838 18.1993 46.4662 20.651 47.0976C21.2542 47.2512 21.8088 47.5929 22.5677 47.9272ZM43.0036 19.8554C43.4609 20.0931 43.8087 20.1575 43.9522 20.368C44.4922 21.1555 45.093 21.9355 45.4335 22.8146C46.0367 24.3698 46.652 25.8878 47.856 27.0739C48.126 27.3389 48.4081 27.5915 48.7195 27.8812C48.3181 28.27 48.0044 28.5548 47.7125 28.8594C46.5499 30.0802 45.8834 31.5759 45.3897 33.1732C45.0297 34.342 44.4752 35.3598 43.0158 35.86C43.1812 34.706 43.2931 33.6882 43.4828 32.6878C43.7284 31.3852 43.4366 30.2486 42.5731 29.2754C42.1377 28.7826 41.6489 28.3393 41.1624 27.854C41.3497 27.6881 41.481 27.5618 41.6245 27.4503C43.2712 26.1577 43.9036 24.5159 43.3855 22.4209C43.1958 21.6631 43.1471 20.8682 43.0036 19.8554ZM27.133 47.8826C28.2276 47.4517 29.1421 47.0729 30.0664 46.7311C31.4187 46.2334 32.2651 45.2701 32.6421 43.8759C32.7832 43.3534 32.8829 42.821 33.0264 42.1796C35.5341 43.5664 37.6113 42.8334 39.4549 40.8795C39.7857 40.5279 40.2673 40.3248 40.7538 40.0054C40.9824 41.2906 40.5178 42.1623 39.9 43.0414C38.9612 44.3761 38.0758 45.753 37.2513 47.162C36.9619 47.6573 36.9132 48.3011 36.7381 48.9375C34.5782 48.0238 32.4427 48.2021 30.295 48.6949C29.2248 48.9326 28.2154 48.8187 27.133 47.8826ZM31.8857 13.7215C27.189 11.5052 22.4874 11.4953 17.781 13.7314C17.8807 11.5522 18.3015 10.7251 20.1184 9.95746C21.8647 9.21951 23.5892 8.5088 24.854 6.96108C26.1626 8.40479 27.6706 9.33589 29.4388 9.9005C31.1901 10.4577 31.9952 11.8023 31.8857 13.7215ZM42.6899 38.3586C40.7076 38.6682 39.2239 39.6612 37.8642 40.9365C36.5119 42.2019 34.8239 42.2465 33.4302 41.1296C35.4125 39.676 37.1078 37.9599 38.3312 35.7882C39.5571 33.6139 40.2138 31.2614 40.4157 28.7281C42.2448 29.84 42.8528 31.0509 42.4491 32.9206C42.055 34.7283 41.9748 36.4989 42.6899 38.3586ZM9.28989 27.1086C7.94971 26.1329 6.8941 25.135 7.18354 23.4263C7.52163 21.4254 7.87431 19.4443 7.00599 17.3815C9.12449 17.119 10.6033 15.9353 12.0554 14.66C13.2885 13.5779 14.9109 13.6101 16.2827 14.6328C12.104 17.649 9.72283 21.7201 9.28989 27.1086ZM16.3143 41.1495C14.8501 42.135 13.3737 42.2242 12.2329 41.246C10.7055 39.936 9.19017 38.6558 7.1276 38.3859C7.28326 37.5365 7.48271 36.8208 7.52892 36.0952C7.57757 35.3672 7.4973 34.6268 7.4292 33.8963C7.36596 33.2252 7.18354 32.564 7.15679 31.8929C7.10328 30.6126 8.13456 29.1986 9.31178 28.8519C9.735 34.0646 12.1089 38.1432 16.3143 41.1495ZM33.3378 14.5337C34.6926 13.8874 36.023 13.4194 37.2586 14.3802C38.9077 15.6654 40.4181 17.1388 42.7093 17.3791C41.8288 19.4864 42.1791 21.4452 42.5269 23.4188C42.7847 24.8898 41.8337 26.4028 40.4279 26.9328C39.9341 21.782 37.7669 17.8025 33.3378 14.5337ZM24.8662 48.8212C23.6549 47.3403 22.1226 46.5008 20.4005 45.9164C18.4985 45.2726 17.8637 44.2746 17.7907 42.036C22.4947 44.2746 27.2036 44.2944 31.9271 42.0261C31.8395 44.2969 31.1512 45.3246 29.2613 45.9511C27.5636 46.5182 26.041 47.3254 24.8662 48.8212ZM24.8443 1.67657C26.6198 4.37826 29.4899 5.02706 32.0243 6.27266C30.0177 5.88883 28.0889 5.57928 26.3815 7.16414C25.8293 6.51039 25.338 5.92597 24.8491 5.34651C24.3213 5.9755 23.8422 6.54753 23.3265 7.15919C21.5267 5.56443 19.5468 5.93588 17.5256 6.31723C20.094 4.98744 23.0809 4.46493 24.8443 1.67657ZM46.8174 23.3347C46.1194 21.413 45.4213 19.5508 43.2396 18.8624C43.529 18.0328 43.7747 17.3221 44.0252 16.6064C43.2542 16.4653 42.5269 16.3316 42.0064 16.235C41.7607 15.086 41.6975 14.0484 41.3035 13.1618C40.9143 12.2852 40.1944 11.5621 39.6179 10.7697C41.9699 12.3892 43.9863 14.556 47.158 14.8185C45.701 17.7233 46.618 20.5141 46.8174 23.3347ZM24.854 50.4258C25.3769 49.7919 25.8537 49.2149 26.3888 48.5661C28.1376 50.2525 30.1004 49.8117 32.0973 49.4774C29.5337 50.7478 26.6223 51.3644 24.8467 54.0834C23.0906 51.3495 20.1986 50.7651 17.691 49.5294C18.6833 49.5641 19.6465 49.8587 20.5708 49.7597C21.5169 49.6606 22.4266 49.1778 23.5065 48.8113C23.8568 49.2372 24.3384 49.8142 24.854 50.4258ZM46.8272 41.0182C43.9011 41.1767 41.9626 43.4549 39.6228 45.0497C40.9459 43.4574 42.2448 41.9097 41.7097 39.5894C42.5561 39.4234 43.2785 39.2848 44.0179 39.1411C43.7576 38.3784 43.5144 37.6677 43.2469 36.8827C45.4773 36.1745 46.1218 34.2727 46.8393 32.3882C46.7591 33.8269 46.421 35.2112 46.3991 36.6004C46.3699 38.0169 46.6569 39.4383 46.8272 41.0182ZM2.73491 41.0033C2.95868 39.9286 3.25299 39.0124 3.31866 38.0763C3.38676 37.1081 3.26515 36.12 3.16542 35.1493C3.073 34.2479 2.89788 33.3564 2.75681 32.46C2.85167 32.4303 2.94652 32.403 3.04138 32.3733C3.55216 34.3791 4.30616 36.1918 6.46602 36.8877C6.18874 37.6999 5.94795 38.4081 5.69742 39.1436C6.49035 39.3021 7.2103 39.4457 8.00808 39.6042C7.48271 41.9394 8.80587 43.4648 10.0634 45.0472C7.74783 43.3831 5.77769 41.2237 2.73491 41.0033ZM2.70086 15.0785C4.09212 14.457 5.4469 14.0038 6.64114 13.2758C7.81836 12.5576 8.83506 11.5646 9.91985 10.6929C10.0001 10.9703 9.95147 11.0842 9.87363 11.1659C8.63561 12.4536 7.65784 13.8453 7.89863 15.7991C7.91809 15.9477 7.61649 16.2399 7.41947 16.2919C6.85762 16.443 6.27387 16.5049 5.67796 16.6064C5.94795 17.3914 6.1936 18.1021 6.47088 18.9119C4.19671 19.5533 3.62756 21.517 2.85653 23.3718C3.10948 20.5191 3.9851 17.701 2.70086 15.0785Z" fill="#8D64AA"/>
</svg>
