<svg width="46" height="47" viewBox="0 0 46 47" fill="none" xmlns="http://www.w3.org/2000/svg">
<path d="M3.37159 23.1351C2.76595 23.9622 2.1822 24.7051 1.65683 25.4876C0.00288682 27.9466 -0.308446 30.5072 1.112 33.2064C2.20166 35.2741 3.13322 37.4112 3.15755 39.8133C3.17214 41.0613 3.03837 42.3119 2.96783 43.6442C3.6586 43.5625 4.36152 43.4609 5.06688 43.3966C7.51132 43.1762 9.87549 43.6145 11.9527 44.8923C15.9537 47.3513 19.4076 46.5093 22.6303 43.4461C22.7374 43.3445 22.8565 43.2603 22.9441 43.191C23.8878 43.8844 24.7561 44.5976 25.695 45.1944C27.9692 46.6381 30.2847 46.7247 32.7462 45.5386C34.4731 44.7065 36.2876 43.9389 38.1458 43.5451C39.6952 43.2183 41.3661 43.4783 43.0639 43.4783C43.0152 43.0028 42.9593 42.406 42.8887 41.8117C42.575 39.162 43.1466 36.6906 44.3189 34.3356C44.4016 34.1722 44.4697 34.0013 44.5597 33.8403C46.5493 30.2892 46.1261 27.6049 43.3193 24.0489C43.0931 23.7641 42.8498 23.4917 42.6017 23.197C43.0468 22.6349 43.4871 22.095 43.9079 21.5403C46.0361 18.7322 46.4058 15.7952 44.6351 12.6329C43.6257 10.8326 42.9131 8.90107 42.8523 6.79617C42.8231 5.75858 42.935 4.71605 42.9933 3.6735C43.0104 3.37882 43.059 3.08661 43.0809 2.90336C41.3953 2.90336 39.756 3.08167 38.1726 2.84889C36.7691 2.64336 35.3317 2.16542 34.0815 1.48442C30.1071 -0.674949 27.4657 -0.736855 23.2579 3.03462C23.1922 3.09405 23.1144 3.13861 23.0317 3.20051C22.2387 2.59381 21.4799 1.94008 20.6553 1.39528C18.3471 -0.132626 15.9391 -0.513991 13.3804 0.798472C12.2251 1.39032 11.0454 1.95492 9.83171 2.40314C7.61591 3.22281 5.332 3.1386 2.97513 2.69781C2.96296 2.93306 2.90946 3.13861 2.94594 3.32681C3.55158 6.50396 3.06026 9.51273 1.52306 12.3184C-0.534647 16.0701 -0.196561 18.8213 2.83405 22.4888C3.00188 22.7067 3.18187 22.9097 3.37159 23.1351ZM10.1868 10.1912C18.7606 10.1912 27.2711 10.1912 35.7743 10.1912C35.7743 18.9203 35.7743 27.5603 35.7743 36.2003C27.2103 36.2003 18.7217 36.2003 10.1868 36.2003C10.1868 27.5157 10.1868 18.8981 10.1868 10.1912ZM24.4594 42.9533C34.8233 41.3164 40.8067 35.2147 42.4096 24.6457C45.0608 27.4538 45.2797 30.1704 44.117 32.565C43.3095 34.2291 42.5847 35.9774 42.1396 37.7678C41.7723 39.2437 41.8721 40.841 41.7675 42.354C40.4589 42.4184 39.0214 42.25 37.7226 42.6091C35.7062 43.1662 33.7385 43.9735 31.8389 44.87C29.5891 45.9299 26.6582 45.3108 24.4594 42.9533ZM24.4618 3.42587C26.2569 1.19716 29.358 0.379962 31.8997 1.59585C34.2493 2.72011 36.5551 3.93848 39.2355 3.99048C40.1281 4.00782 41.0232 3.99296 41.9621 3.99296C41.4561 7.36822 42.2807 10.4389 43.8617 13.3189C45.4572 16.2236 45.0048 18.9377 42.4145 21.7384C40.8043 11.1768 34.8185 5.07512 24.4618 3.42587ZM4.06235 42.3887C4.28126 40.1525 4.17667 37.9585 3.36915 35.8685C2.86324 34.5585 2.21139 33.3079 1.669 32.0128C0.640143 29.5587 1.50117 26.342 3.69994 24.5887C4.01614 29.5364 5.96926 33.7685 9.3039 37.1661C12.6337 40.5562 16.7977 42.5051 21.655 42.8443C19.41 45.4073 16.4426 46.0215 13.5604 44.5555C11.364 43.4362 9.14824 42.4258 6.63083 42.3912C5.79656 42.3788 4.95986 42.3887 4.06235 42.3887ZM3.60995 21.7979C1.07066 19.1407 0.528259 16.5257 2.04113 13.5467C3.5686 10.5355 4.54881 7.44497 4.0283 3.97065C4.45395 3.97065 4.80906 3.94837 5.15931 3.97313C7.56239 4.15391 9.83414 3.64626 12.0037 2.6161C12.8502 2.21493 13.6796 1.78158 14.5284 1.38289C16.6105 0.407205 19.6338 1.26155 21.5553 3.49274C13.2247 4.17621 4.65096 10.7385 3.60995 21.7979ZM36.881 35.341C36.881 27.2013 36.881 19.1804 36.881 11.0654C42.6771 17.5881 42.9593 28.3874 36.881 35.341ZM9.15067 35.3856C2.47164 27.7238 3.89696 16.4886 9.15067 11.1298C9.15067 19.1903 9.15067 27.2062 9.15067 35.3856ZM34.9425 37.3246C26.719 44.5803 15.7105 42.0841 11.2132 37.3246C19.0768 37.3246 26.9257 37.3246 34.9425 37.3246ZM11.2351 9.08679C15.3554 5.41932 20.1227 3.99294 25.5174 4.65413C28.9664 5.07758 33.6631 7.38307 34.7552 9.08679C26.9063 9.08679 19.0719 9.08679 11.2351 9.08679Z" fill="#8D64AA"/>
<path d="M13.5458 16.5603C16.7053 22.1296 19.8041 27.5949 22.9928 33.2137C26.1693 27.6172 29.2753 22.142 32.4446 16.5603C26.1182 16.5603 19.9062 16.5603 13.5458 16.5603ZM30.7614 17.5335C28.137 22.1568 25.6075 26.6167 22.9928 31.2252C20.3635 26.5845 17.8339 22.1221 15.2338 17.5335C20.4729 17.5335 25.498 17.5335 30.7614 17.5335Z" fill="#8D64AA"/>
</svg>
