<svg width="59" height="40" viewBox="0 0 59 40" fill="none" xmlns="http://www.w3.org/2000/svg">
<path d="M8.38883e-06 19.7617C3.25926 22.3618 5.03482 25.7742 5.90314 29.6621C7.36737 36.2145 13.3216 38.5447 19.0958 37.3487C19.6066 37.2422 20.239 37.3165 20.7133 37.5344C26.2637 40.085 31.7898 40.0702 37.3427 37.5443C37.8194 37.3264 38.4421 37.2496 38.9602 37.3412C41.5359 37.7944 44.0752 37.8266 46.5124 36.7444C49.543 35.4023 51.3623 33.02 52.1407 29.7636C53.0747 25.851 54.7748 22.3891 58.0024 19.8162C57.8638 19.6354 57.7762 19.4794 57.6522 19.3704C54.8867 16.9783 53.2449 13.9051 52.3206 10.3739C51.7685 8.26156 51.1118 6.2062 49.4238 4.65601C46.8456 2.2911 43.8126 1.45657 40.4657 1.93946C38.9067 2.16481 37.5567 2.05832 36.0633 1.44171C30.8777 -0.700323 25.7067 -0.400685 20.6281 1.9766C20.2292 2.16233 19.7039 2.24404 19.2782 2.15737C16.3911 1.57543 13.5843 1.62744 10.9112 3.04638C8.52026 4.31675 6.94902 6.25076 6.16339 8.9054C5.60154 10.8023 5.07373 12.7586 4.15677 14.4821C3.27385 16.1438 1.91664 17.5478 0.754015 19.0559C0.569162 19.2887 0.318636 19.4645 8.38883e-06 19.7617ZM29.0219 1.04055C39.1158 1.02816 47.3929 9.38829 47.4172 19.6205C47.4415 29.9097 39.2447 38.4209 29.2408 38.4457C24.1476 38.4581 19.7209 36.6652 16.1163 32.9928C12.0057 28.8028 10.1183 23.6817 10.7263 17.793C11.6992 8.38785 19.4655 1.03312 29.0219 1.04055ZM1.69287 19.935C2.89442 18.1644 4.19325 16.6068 5.08589 14.8362C5.96881 13.0879 6.51121 11.1465 7.08036 9.2521C8.14083 5.7134 10.5318 3.72985 13.9856 2.99685C15.4668 2.68236 16.9846 2.68236 18.5729 3.11572C12.8521 7.23388 9.79234 12.6595 9.76802 19.7444C9.74127 26.8515 12.93 32.2127 18.5583 36.3755C16.824 36.7593 15.2163 36.7865 13.6329 36.3878C10.1085 35.5038 7.8295 33.3098 6.93685 29.672C6.01502 25.9179 4.50945 22.4758 1.69287 19.935ZM39.4782 3.05876C42.9175 2.45701 45.9748 2.91266 48.626 5.25033C50.3019 6.7287 50.871 8.76425 51.4256 10.8122C52.148 13.4767 53.2255 15.9555 55.0132 18.0703C55.4972 18.6424 56.0201 19.1822 56.5504 19.7642C54.3127 21.8468 52.7828 24.3132 51.8804 27.1783C51.5496 28.2308 51.2213 29.2832 50.9245 30.3456C50.4478 32.0542 49.5357 33.4435 48.1882 34.5826C46.0332 36.4052 41.9373 37.2521 39.629 36.2913C51.4134 28.1788 51.2042 10.936 39.4782 3.05876Z" fill="#8D64AA"/>
<path d="M13.4335 19.9845C13.3265 28.9885 20.9006 36.0758 29.6932 35.7143C38.5297 35.3502 45.019 27.7677 44.7539 19.1773C44.4888 10.5645 37.2357 3.49706 28.7738 3.72241C18.4878 3.99728 12.7379 13.1796 13.4335 19.9845ZM14.2994 19.8013C14.2532 11.5724 20.8082 4.78724 28.859 4.73028C37.0606 4.67332 43.7761 11.3495 43.7858 19.628C43.7956 27.9311 37.423 34.7188 28.8979 34.8079C21.3384 34.8872 14.1875 28.1837 14.2994 19.8013Z" fill="#8D64AA"/>
<path d="M38.4834 13.0953C32.1181 13.0953 25.9256 13.0953 19.5822 13.0953C22.7393 18.6622 25.8356 24.12 29.034 29.7611C32.2033 24.172 35.3044 18.7018 38.4834 13.0953ZM29.0364 27.7677C26.4242 23.1617 23.88 18.677 21.2799 14.0908C26.5215 14.0908 31.5855 14.0908 36.7978 14.0908C34.1904 18.682 31.6536 23.1542 29.0364 27.7677Z" fill="#8D64AA"/>
</svg>
