<svg width="199" height="33" viewBox="0 0 199 33" fill="none" xmlns="http://www.w3.org/2000/svg">
<path d="M23.8884 3.92948C23.7854 4.06699 23.7167 4.17012 23.648 4.23888C23.5793 4.30763 23.5106 4.30763 23.4419 4.30763C22.6861 4.34201 21.9475 4.37638 21.1918 4.41076C19.7318 4.47951 18.3234 4.58264 16.8291 4.68577C15.4034 4.7889 14.0294 4.85766 12.6381 4.96079C12.3976 4.96079 11.5388 5.02955 11.5388 5.02955C11.5388 5.02955 11.3671 5.27018 11.2297 5.5452C11.0235 5.92335 10.8518 6.26712 10.68 6.64527C10.0273 8.03755 9.35745 9.41265 8.70476 10.8049C8.25818 11.8706 7.84596 12.9879 7.3822 14.0879C7.3822 14.1223 7.34785 14.1567 7.34785 14.1911C7.65702 14.1567 7.93184 14.1223 8.24101 14.1223C9.44333 14.0192 10.6628 13.9504 11.8995 13.8473C12.6553 13.8129 13.3938 13.7786 14.1496 13.7442C14.3214 13.7442 14.4588 13.7442 14.5962 13.7442C14.8366 13.7442 15.0771 13.8473 15.2489 14.0536C15.558 14.5005 15.7298 15.0161 15.6611 15.6521C15.6611 15.7552 15.6267 15.8584 15.558 15.9615C15.5237 16.0646 15.4206 16.1334 15.2832 16.099C15.0427 15.9959 14.8023 16.0303 14.5618 16.0303C11.8995 16.1334 9.20287 16.3397 6.54057 16.5803C6.43751 16.5803 6.40316 16.649 6.36881 16.7178C5.75047 18.4538 5.0806 20.1383 4.42791 21.8744C3.77522 23.4729 3.10535 25.0543 2.45265 26.6872C2.24654 27.2372 2.04043 27.7873 1.83431 28.3545C1.79996 28.4232 1.79996 28.4576 1.76561 28.5607C1.90302 28.5607 2.04043 28.5607 2.14348 28.5264C3.17405 28.4232 4.22179 28.2857 5.25236 28.1826C6.84974 28.0451 8.39559 27.8732 9.99297 27.7357C11.2812 27.6669 12.4835 27.5982 13.7374 27.5294C13.9435 27.5294 14.1839 27.5294 14.4244 27.5294C14.6649 27.4951 14.871 27.5638 15.0427 27.7013C15.3863 28.0107 15.6611 28.4232 15.7298 28.9561C15.7641 29.0248 15.7641 29.128 15.7641 29.2311C15.7298 29.4374 15.5924 29.5405 15.3863 29.5405C15.1802 29.5405 14.9397 29.5405 14.7336 29.5405C13.8061 29.6092 12.8614 29.6436 11.9339 29.7124C10.1991 29.8155 8.48147 29.953 6.71233 30.0905C5.64741 30.1937 4.59967 30.2968 3.53475 30.3656C3.08817 30.3999 2.67594 30.3999 2.21219 30.3999C1.49079 30.3655 0.958332 29.9874 0.511753 29.403C-0.00353019 28.7842 -0.106587 28.0451 0.0995265 27.22C0.374344 26.2918 0.752219 25.4152 1.09574 24.5214C2.12631 22.0291 3.17405 19.5367 4.13591 17.01C4.13591 16.9756 4.13591 16.9413 4.17027 16.8725C3.75804 16.8037 3.58628 16.5287 3.48322 16.185C3.31146 15.8412 3.24276 15.463 3.27711 15.0849C3.27711 15.0505 3.27711 14.9817 3.34581 14.9474C3.38016 14.7411 3.48322 14.638 3.65498 14.638C4.03286 14.5692 4.44508 14.5005 4.82296 14.4661C5.06342 14.4661 5.16648 14.363 5.26954 14.1567C6.05964 12.1113 6.93562 10.0658 7.89748 8.10631C8.37841 7.14375 8.8937 6.164 9.46051 5.20143L8.22383 5.30456C7.53679 5.27018 7.33067 3.7404 8.77347 2.88097L13.9263 2.50282V2.53719C14.7851 2.46844 15.6611 2.39969 16.4855 2.36531C17.4474 2.29656 18.4264 2.22781 19.3883 2.15906C20.1097 2.12468 20.8483 2.05592 21.604 2.02154C22.1537 1.98717 22.7376 1.98717 23.3732 1.95279C23.5793 1.95279 23.751 2.05592 23.8197 2.26218C23.9915 2.5372 23.9915 2.88097 23.9915 3.19037C24.0259 3.4482 23.9915 3.72322 23.8884 3.92948ZM33.5071 16.8037C32.5109 17.6975 31.3944 18.7117 31.257 18.8492C30.6387 19.468 30.0547 20.0696 29.5566 20.6196C29.0069 21.1697 28.4573 21.7541 27.8905 22.3557C27.6157 22.6307 27.3408 22.9401 27.066 23.2151C26.9286 23.3526 26.8256 23.4901 26.6882 23.6276C26.5507 23.7995 26.379 23.937 26.2416 24.1089C26.2072 24.1433 26.1729 24.1777 26.1385 24.212C26.1042 24.212 26.0698 24.2464 26.0698 24.2464C25.8293 24.4871 25.5545 24.5902 25.211 24.5902C25.108 24.5902 25.0392 24.5902 24.9362 24.5558C24.7301 24.5214 24.4896 24.487 24.2835 24.3839C23.9743 24.212 23.8369 24.0058 23.8713 23.6964C23.8713 23.6276 23.8713 23.5589 23.8713 23.4557C23.8713 23.2495 23.9056 23.0088 23.9056 22.7682C24.1804 21.0321 24.7988 19.382 25.3999 17.9554C26.0183 16.4256 26.8256 14.9817 27.547 13.5895C27.6157 13.452 27.7187 13.2801 27.7874 13.1082C27.8218 13.0394 27.8561 12.9707 27.8905 12.9019C27.8905 12.8676 27.8905 12.8676 27.8905 12.8332C27.8905 12.8332 27.9248 12.8332 27.9248 12.7988C27.8561 12.8332 27.8218 12.8676 27.7531 12.9019C27.65 13.0051 27.547 13.0738 27.4439 13.1426C26.6538 13.7614 25.9496 14.4661 25.3999 15.0849C24.0087 16.5459 22.7033 18.1616 21.2433 20.2071C20.8998 20.6884 20.5219 21.1353 20.1784 21.5994L20.1097 21.7369C19.9723 21.8744 19.8349 22.0119 19.6975 22.1494C19.3883 22.39 19.0448 22.4932 18.6326 22.39C18.289 22.3213 17.9799 22.1838 17.7394 22.0119C17.4646 21.7712 17.3615 21.4962 17.4302 21.1525C17.4989 20.6712 17.6363 20.2243 17.7737 19.7602L17.8081 19.657C17.9799 19.2101 18.1173 18.7632 18.2547 18.3507C18.5295 17.4913 18.8387 16.5803 19.1135 15.6865C19.354 14.827 19.5944 13.8817 19.8349 13.0223C19.9036 12.6785 20.0066 12.3003 20.1097 11.9566C20.1097 11.8534 20.1441 11.7847 20.1441 11.6815C20.1441 11.6472 20.1784 11.5784 20.1784 11.544C20.2128 11.3034 20.3158 11.2346 20.5906 11.269C20.7624 11.269 20.8998 11.3378 21.1059 11.4409C21.312 11.544 21.5525 11.7159 21.7243 11.9909C21.793 12.1628 21.8273 12.3003 21.793 12.5066C21.4838 14.3458 21.0029 16.2021 20.333 18.2132C20.333 18.2476 20.333 18.2476 20.2986 18.2476C20.333 18.2476 20.333 18.2132 20.333 18.2132C21.501 16.5803 22.8235 14.9989 24.2835 13.4691C25.0049 12.7472 25.6061 12.18 26.2244 11.7331C26.5679 11.4925 26.9114 11.3206 27.2206 11.2174C27.4954 11.1143 27.7702 11.1143 28.0451 11.1831C28.9039 11.4581 29.4363 11.9394 29.6768 12.7472C29.7455 13.0222 29.6768 13.2973 29.6081 13.5723C29.505 13.9848 29.2989 14.363 29.0928 14.7411V14.7755C28.9554 15.0505 28.818 15.3255 28.6806 15.6349C28.3371 16.2537 27.9935 16.9412 27.6844 17.646C26.9973 19.107 26.4649 20.4133 26.1213 21.7025C26.1213 21.7025 26.1213 21.7369 26.1213 21.7712L26.2931 21.565C26.4649 21.3931 26.6023 21.2556 26.7397 21.0837C26.8427 20.9806 28.0279 19.6914 28.7493 18.9351C30.4497 17.0959 32.2704 15.5146 32.9746 15.0505C32.9574 15.0333 34.5892 15.8756 33.5071 16.8037ZM43.8127 16.7694C43.1601 17.6632 41.3566 19.1586 40.8069 19.6055C39.7764 20.3962 38.6943 21.1696 37.4919 21.6853C36.7018 22.0291 35.8602 22.2353 35.0014 22.1666C34.0052 22.0978 33.0605 21.7197 32.3734 20.9462C31.8582 20.3618 31.6177 19.6227 31.6521 18.832C31.6864 17.8007 31.9956 16.8553 32.4422 15.9615C33.0261 14.7067 33.8678 13.641 34.864 12.7472C35.5167 12.1972 36.2553 11.7503 37.1141 11.5784C37.6293 11.4409 38.1446 11.4065 38.6427 11.5784C39.4328 11.9222 40.034 12.4722 40.2401 13.3145C40.3775 13.7957 40.2745 14.2426 40.1027 14.7067C39.8622 15.2568 39.5531 15.7724 39.2095 16.2365C39.0721 16.4428 38.866 16.5115 38.5912 16.4084C38.282 16.3053 38.0759 16.099 37.8355 15.8584C37.6637 15.6865 37.5263 15.4802 37.4576 15.2052C37.4232 15.0677 37.4232 14.9302 37.5606 14.827C37.8698 14.4145 38.1103 13.9676 38.3507 13.4691C38.3851 13.4348 38.4194 13.366 38.4538 13.2629C38.3164 13.2973 38.2133 13.3316 38.1103 13.366C37.3889 13.641 36.7534 14.0536 36.2037 14.6036C35.2075 15.5318 34.4689 16.7178 33.988 18.0241C33.8162 18.6085 33.7132 19.2273 33.7475 19.8633C33.7819 20.1727 33.8849 20.4821 34.0567 20.7227C34.1598 20.8603 34.2628 20.929 34.4346 20.929C34.8812 20.8946 35.3277 20.7571 35.7915 20.5852C36.6847 20.2415 37.6637 19.7946 38.4194 19.1586C39.4157 18.3679 43.641 15.0333 43.641 15.0333C43.641 15.0333 44.5685 15.7381 43.8127 16.7694ZM52.4523 17.285C50.4084 19.4336 45.7021 24.6589 43.6582 24.6589C43.5551 24.6589 43.452 24.6589 43.3146 24.6589C42.9711 24.6246 42.6619 24.5558 42.3528 24.3839C41.8375 24.1089 41.5627 23.6964 41.494 23.0948C41.4253 22.476 41.5283 21.84 41.6314 21.1868C42.0092 18.7976 42.9196 16.5459 43.9158 14.363C44.4311 13.1941 44.9807 12.0769 45.6506 10.9768C45.7536 10.7705 45.8911 10.7362 46.1315 10.7705C46.3376 10.8049 46.5437 10.9081 46.7155 11.0456C46.9903 11.2518 47.2308 11.4925 47.3682 11.8362C47.4369 12.0425 47.4369 12.2144 47.2995 12.4206C46.7842 13.3145 46.372 14.3286 45.9082 15.2911C45.3242 16.6147 44.7746 17.9554 44.3109 19.382C44.036 20.3102 43.7956 21.3243 43.6925 22.2869C43.6582 22.4932 43.6582 22.6651 43.6582 22.8369L52.2634 15.0161C52.2806 15.0333 54.1528 15.463 52.4523 17.285ZM46.7842 9.46421C46.7155 9.32671 46.7155 9.18919 46.7842 9.05168C47.1277 8.53602 47.4369 8.02037 47.7804 7.48752C47.8491 7.38439 47.9865 7.35001 48.0896 7.28125C48.0896 7.28125 48.0896 7.28126 48.0896 7.31564C48.3301 7.24688 48.5362 7.31563 48.7423 7.38438C49.0858 7.52189 49.395 7.65941 49.6354 7.9688C49.6698 8.03755 49.7042 8.10631 49.7385 8.17507C49.8072 8.31258 49.7729 8.4157 49.7042 8.51884C49.395 9.00012 49.0858 9.51578 48.7766 10.0142C48.6392 10.2549 48.4675 10.3236 48.227 10.3236C48.1239 10.3236 48.0209 10.2893 47.8835 10.2549C47.54 10.1518 47.1964 9.97986 46.9216 9.67047C46.8873 9.60171 46.8529 9.53297 46.7842 9.46421ZM63.4966 17.0444C62.7408 17.9382 60.9717 19.6055 60.9717 19.6055C60.6625 19.8805 60.0442 20.4305 59.7178 20.7056C58.859 21.4275 57.9143 22.0119 56.9181 22.476C56.4372 22.6823 55.9563 22.8541 55.4238 22.8198C54.8398 22.7854 54.3245 22.5791 53.7921 22.3041C53.0363 21.8572 52.4695 21.2384 52.126 20.4305C51.7825 19.6055 51.542 18.7289 51.5763 17.8351C51.5763 16.5459 51.9542 15.3771 52.71 14.3458C53.4657 13.3488 54.4791 12.6097 55.5784 12.0597C56.2311 11.7159 56.9696 11.4409 57.7254 11.3034C58.756 11.0971 59.5976 11.4753 60.2159 12.3003C60.5938 12.7472 60.6282 13.2629 60.3877 13.8301C60.1816 14.2426 59.9068 14.5864 59.5976 14.9302C59.0136 15.5833 58.3953 16.2193 57.6567 16.7006C57.3819 16.9413 57.0384 17.1475 56.6948 17.285C56.3857 17.4225 55.6643 17.56 55.0975 17.2163C54.3417 16.6662 54.4448 16.2881 54.273 16.0474C53.8951 16.6662 53.6547 17.3538 53.5516 18.1273C53.4829 18.8836 53.6203 19.6227 53.8951 20.3446C54.0669 20.7571 54.2386 21.1353 54.5822 21.4447C54.6509 21.5134 54.7196 21.5134 54.8226 21.479C55.4066 21.3072 55.9219 20.9978 56.42 20.6884C57.2101 20.1383 57.9487 19.5195 58.6357 18.8836C58.8418 18.6773 59.3915 18.196 59.5976 18.0241L62.8095 15.0505C62.8439 15.0333 64.2867 16.0474 63.4966 17.0444ZM54.3932 15.8412C54.565 15.8412 54.9772 15.8412 54.9772 15.8412C55.5269 15.7037 55.8017 15.4974 56.1108 15.2568C56.9009 14.638 57.4678 14.0879 58.0861 13.3145C58.1204 13.2801 58.1548 13.2457 58.1892 13.2113C58.1892 13.1769 58.1892 13.1769 58.1548 13.1769C58.0174 13.2457 57.8456 13.2801 57.7082 13.3488C56.8151 13.7614 56.0078 14.2083 55.2864 14.8442C54.9429 15.1364 54.668 15.4974 54.3932 15.8412ZM77.0829 16.8037C76.0867 17.6975 74.9702 18.7117 74.8328 18.8492C74.2145 19.468 73.6305 20.0696 73.1324 20.6196C72.5827 21.1697 72.0331 21.7541 71.4663 22.3557C71.1915 22.6307 70.9167 22.9401 70.6418 23.2151C70.5044 23.3526 70.4014 23.4901 70.264 23.6276C70.1266 23.7995 69.9548 23.937 69.8174 24.1089C69.783 24.1433 69.7487 24.1777 69.7143 24.212C69.68 24.212 69.6456 24.2464 69.6456 24.2464C69.4052 24.4871 69.1303 24.5902 68.7868 24.5902C68.6838 24.5902 68.6151 24.5902 68.512 24.5558C68.3059 24.5214 68.0654 24.487 67.8593 24.3839C67.5501 24.212 67.4127 24.0058 67.4471 23.6964C67.4471 23.6276 67.4471 23.5589 67.4471 23.4557C67.4471 23.2495 67.4814 23.0088 67.4814 22.7682C67.7563 21.0321 68.3746 19.382 68.9758 17.9554C69.5941 16.4256 70.4014 14.9817 71.1228 13.5895C71.1915 13.452 71.2945 13.2801 71.3632 13.1082C71.3976 13.0394 71.4319 12.9707 71.4663 12.9019C71.4663 12.8676 71.4663 12.8676 71.4663 12.8332C71.4663 12.8332 71.5006 12.8332 71.5006 12.7988C71.4319 12.8332 71.3976 12.8676 71.3289 12.9019C71.2258 13.0051 71.1228 13.0738 71.0197 13.1426C70.2296 13.7614 69.5254 14.4661 68.9758 15.0849C67.5845 16.5459 66.2791 18.1616 64.8191 20.2071C64.4756 20.6884 64.0977 21.1353 63.7542 21.5994L63.6855 21.7369C63.5481 21.8744 63.4107 22.0119 63.2733 22.1494C62.9641 22.39 62.6206 22.4932 62.2084 22.39C61.8648 22.3213 61.5557 22.1838 61.3152 22.0119C61.0404 21.7712 60.9373 21.4962 61.006 21.1525C61.0747 20.6712 61.2122 20.2243 61.3496 19.7602L61.3839 19.657C61.5557 19.2101 61.6931 18.7632 61.8305 18.3507C62.1053 17.4913 62.4145 16.5803 62.6893 15.6865C62.9298 14.827 63.1702 13.8817 63.4107 13.0223C63.4794 12.6785 63.5825 12.3003 63.6855 11.9566C63.6855 11.8534 63.7199 11.7847 63.7199 11.6815C63.7199 11.6472 63.7542 11.5784 63.7542 11.544C63.7886 11.3034 63.8916 11.2346 64.1664 11.269C64.3382 11.269 64.4756 11.3378 64.6817 11.4409C64.8878 11.544 65.1283 11.7159 65.3001 11.9909C65.3688 12.1628 65.4031 12.3003 65.3688 12.5066C65.0596 14.3458 64.5787 16.2021 63.9088 18.2132C63.9088 18.2476 63.9088 18.2476 63.8744 18.2476C63.9088 18.2476 63.9088 18.2132 63.9088 18.2132C65.0768 16.5803 66.3993 14.9989 67.8593 13.4691C68.5807 12.7472 69.1819 12.18 69.8002 11.7331C70.1437 11.4925 70.4873 11.3206 70.7964 11.2174C71.0712 11.1143 71.3461 11.1143 71.6209 11.1831C72.4797 11.4581 73.0121 11.9394 73.2526 12.7472C73.3213 13.0222 73.2526 13.2973 73.1839 13.5723C73.0808 13.9848 72.8747 14.363 72.6686 14.7411V14.7755C72.5312 15.0505 72.3938 15.3255 72.2564 15.6349C71.9129 16.2537 71.5693 16.9412 71.2602 17.646C70.5731 19.107 70.0407 20.4133 69.6972 21.7025C69.6972 21.7025 69.6972 21.7369 69.6972 21.7712L69.8689 21.565C70.0407 21.3931 70.1781 21.2556 70.3155 21.0837C70.4185 20.9806 71.6037 19.6914 72.3251 18.9351C74.0255 17.0959 75.8462 15.5146 76.5504 15.0505C76.5332 15.0333 78.165 15.8756 77.0829 16.8037ZM85.4133 17.3538C85.1728 18.2476 84.9667 19.1586 84.9667 20.0868C84.9667 20.4649 85.0011 20.8087 85.0354 21.1868C85.0354 21.1868 85.0698 21.2212 85.0698 21.2556C85.2415 21.0837 90.6005 15.0333 90.6005 15.0333C90.6005 15.0333 91.9917 15.7896 91.4593 16.5631C91.1158 17.01 87.7664 21.1696 87.337 21.6509C87.0279 21.9947 86.7187 22.3041 86.3408 22.5791C85.7912 22.9916 85.1728 23.0604 84.503 22.8885C83.5755 22.6822 83.0773 22.0291 82.8712 21.1525C82.7338 20.4993 82.6995 19.8805 82.7682 19.2101C82.8025 19.0039 82.8369 18.832 82.8369 18.6257C82.459 19.0383 82.1155 19.4508 81.7376 19.8805C81.1536 20.4993 80.5353 21.1181 79.8311 21.6166C79.3845 21.926 78.9379 22.201 78.4398 22.3728C77.7871 22.5791 77.1859 22.5104 76.5676 22.2697C76.0523 22.0635 75.6057 21.7541 75.2794 21.3072C74.9702 20.8259 74.9015 20.2758 74.9359 19.7086C75.0046 18.7804 75.2794 17.9038 75.5886 17.01C76.2069 15.3427 77.1172 13.8301 78.2852 12.4722C78.6287 12.0941 78.9723 11.7503 79.4188 11.4753C79.9341 11.1315 80.4838 11.0627 81.1193 11.269C81.8063 11.544 82.3731 11.9909 82.8884 12.541C83.1976 12.8504 83.438 13.1941 83.6098 13.6067C83.6442 13.6067 83.6442 13.641 83.6442 13.6754C83.7816 13.4692 83.919 13.2629 84.0564 13.0566C84.4686 12.3691 84.9152 11.4925 85.3102 10.7705C85.5851 10.2549 86.169 8.82822 86.5297 8.00317C87.3542 5.92335 87.6634 5.27019 88.4019 3.36225C89.0203 1.69496 89.2607 1.1793 89.6214 0.285491C89.7932 -0.0582811 89.9993 -0.0239028 90.2398 0.0448516C90.7207 0.18236 90.9955 0.388621 91.3047 0.76677C91.4421 0.938656 91.5108 1.21367 91.4421 1.38556C90.4803 3.98104 89.673 6.02649 88.6081 8.7251C88.0584 10.1518 87.337 11.7675 86.7359 13.366C86.2893 14.7239 85.774 16.0131 85.4133 17.3538ZM82.9228 14.8614C82.8197 14.7583 82.7167 14.6552 82.6136 14.5864C82.3731 14.3801 82.2357 14.1395 82.2014 13.8301C82.1327 13.452 81.9609 13.1082 81.6517 12.7988C81.583 12.7644 81.5143 12.73 81.4456 12.7644C81.2395 12.8676 81.0677 12.9363 80.9303 13.0394C80.6555 13.2801 80.3807 13.5207 80.1402 13.7957C78.7833 15.2911 77.8558 17.01 77.3405 18.9523C77.2031 19.468 77.1001 20.018 77.1001 20.6196C77.1344 20.7915 77.1688 20.9634 77.1688 21.1696C77.4092 21.0321 77.6153 20.929 77.8215 20.7915C78.5429 20.3102 79.1268 19.7258 79.728 19.0554C80.7242 17.9898 81.6002 16.8381 82.4247 15.6349C82.5792 15.3943 82.751 15.1021 82.9228 14.8614ZM101.816 17.0444C101.061 17.9382 99.2916 19.6055 99.2916 19.6055C98.9824 19.8805 98.3641 20.4305 98.0377 20.7056C97.1789 21.4275 96.2343 22.0119 95.238 22.476C94.7571 22.6823 94.2762 22.8541 93.7437 22.8198C93.1597 22.7854 92.6444 22.5791 92.112 22.3041C91.3562 21.8572 90.7894 21.2384 90.4459 20.4305C90.1024 19.6055 89.8619 18.7289 89.8963 17.8351C89.8963 16.5459 90.2741 15.3771 91.0299 14.3458C91.7856 13.3488 92.799 12.6097 93.8983 12.0597C94.551 11.7159 95.2896 11.4409 96.0453 11.3034C97.0759 11.0971 97.9175 11.4753 98.5358 12.3003C98.9137 12.7472 98.9481 13.2629 98.7076 13.8301C98.5015 14.2426 98.2267 14.5864 97.9175 14.9302C97.3335 15.5833 96.7152 16.2193 95.9766 16.7006C95.7018 16.9413 95.3583 17.1475 95.0147 17.285C94.7056 17.4225 93.9842 17.56 93.4174 17.2163C92.6616 16.6662 92.7647 16.2881 92.5929 16.0474C92.215 16.6662 91.9746 17.3538 91.8715 18.1273C91.8028 18.8836 91.9402 19.6227 92.215 20.3446C92.3868 20.7571 92.5586 21.1353 92.9021 21.4447C92.9708 21.5134 93.0395 21.5134 93.1425 21.479C93.7265 21.3072 94.2418 20.9978 94.7399 20.6884C95.53 20.1383 96.2686 19.5195 96.9556 18.8836C97.1618 18.6773 97.7114 18.196 97.9175 18.0241L101.129 15.0505C101.164 15.0333 102.607 16.0474 101.816 17.0444ZM92.7131 15.8412C92.8849 15.8412 93.2971 15.8412 93.2971 15.8412C93.8468 15.7037 94.1216 15.4974 94.4308 15.2568C95.2209 14.638 95.7877 14.0879 96.406 13.3145C96.4404 13.2801 96.4747 13.2457 96.5091 13.2113C96.5091 13.1769 96.5091 13.1769 96.4747 13.1769C96.3373 13.2457 96.1655 13.2801 96.0281 13.3488C95.135 13.7614 94.3277 14.2083 93.6063 14.8442C93.2628 15.1364 92.988 15.4974 92.7131 15.8412ZM129.522 5.32175C129.522 5.39051 129.487 5.45927 129.453 5.52802C129.315 5.76866 129.178 5.80303 128.938 5.66552C128.835 5.63114 128.697 5.59678 128.56 5.59678C127.873 5.59678 127.168 5.59677 126.481 5.63115C125.623 5.66553 124.747 5.6999 123.888 5.73428C122.995 5.80303 122.05 5.8374 121.122 5.90616C120.435 5.94054 119.766 6.00929 119.044 6.04367C118.323 6.11243 117.584 6.18118 116.863 6.24994C116.073 6.31869 115.231 6.42182 114.441 6.52495C113.754 6.5937 113.084 6.66246 112.431 6.73122C112.328 6.7656 112.294 6.79998 112.26 6.86873C111.607 8.14069 111.006 9.46421 110.456 10.7877C109.769 12.4894 109.03 14.1739 108.378 15.9099C107.622 17.8179 106.952 19.7086 106.368 21.6509C105.853 23.662 105.372 25.7762 105.441 27.8388C105.475 28.2514 105.578 29.953 106.368 29.953C111.246 25.7246 114.046 21.2728 117.687 15.0333C117.687 15.0333 119.766 15.6521 118.615 17.7319C116.571 21.1525 110.25 31.0187 106.609 31.1906C106.059 31.1906 105.544 31.0875 105.011 30.8125C104.152 30.3999 103.654 29.678 103.38 28.767C103.208 28.1138 103.139 27.4091 103.173 26.7559C103.414 22.6651 105.664 16.7866 107.124 12.8676C107.742 11.2003 108.481 9.6189 109.168 8.02036C109.305 7.71097 109.443 7.43595 109.58 7.09218C109.202 7.16093 108.824 7.22969 108.481 7.29845C106.677 7.57346 104.891 7.91723 103.088 8.32976C102.95 8.36414 102.778 8.39851 102.641 8.43289C102.435 8.46726 102.263 8.43289 102.126 8.32976C101.645 7.88286 101.404 7.3672 101.473 6.69685C101.473 6.45621 101.542 6.38744 101.748 6.35307C103.208 5.97492 104.685 5.66553 106.145 5.39051C107.175 5.21862 108.189 5.04673 109.219 4.87485C109.7 4.80609 110.216 4.73735 110.748 4.66859C110.817 4.63421 110.885 4.6342 110.92 4.56545C111.469 3.60289 112.019 2.62315 112.586 1.66058C112.689 1.52308 112.826 1.4887 112.964 1.52307C113.101 1.55745 113.273 1.59182 113.41 1.69496C113.823 1.90122 114.132 2.21062 114.304 2.62314C114.372 2.82941 114.372 3.03567 114.269 3.24193C114.063 3.55133 113.891 3.86072 113.72 4.13574C113.72 4.20449 113.685 4.23887 113.651 4.27325C113.823 4.27325 113.96 4.23888 114.097 4.23888C114.956 4.13574 115.798 4.03261 116.622 3.96385C117.619 3.86072 118.598 3.79197 119.559 3.72321C120.59 3.62008 121.603 3.55133 122.634 3.48257C123.561 3.4482 124.54 3.41382 125.468 3.37945C126.292 3.34507 127.168 3.31069 127.959 3.31069C128.13 3.31069 128.302 3.31069 128.474 3.31069C128.92 3.34507 129.195 3.58571 129.367 3.92948C129.556 4.41076 129.659 4.85766 129.522 5.32175ZM132.424 17.4569C131.136 18.9523 130.586 19.6055 130.586 19.6055C129.728 20.6368 128.886 21.6853 128.027 22.7166C127.512 23.3354 126.962 23.8854 126.292 24.3495C125.812 24.6933 125.262 24.9683 124.661 24.9683C124.008 25.0027 123.424 24.8652 122.857 24.4871C122.479 24.212 122.273 23.8339 122.239 23.3526C122.17 22.7682 122.239 22.1838 122.342 21.5822C122.411 20.929 122.548 20.3102 122.685 19.6742C122.685 19.6399 122.685 19.6399 122.685 19.6055C122.376 19.8461 122.067 20.0868 121.758 20.3274C121.105 20.8431 120.401 21.3243 119.714 21.8572C119.439 22.0635 119.13 22.2353 118.786 22.3385C118.443 22.4416 118.099 22.4072 117.79 22.3041C117.344 22.1666 116.966 21.9259 116.657 21.5822C116.347 21.2384 116.21 20.8603 116.21 20.379C116.176 19.7258 116.313 19.0898 116.451 18.471C116.725 17.3022 117.206 16.185 117.704 15.0849C118.117 14.1911 118.563 13.2457 119.096 12.3863C119.164 12.2488 119.267 12.1113 119.37 11.9737C119.474 11.7331 119.68 11.6987 119.92 11.7331C120.264 11.8019 120.573 12.0081 120.848 12.2488C120.985 12.3863 121.088 12.5582 121.191 12.73C121.294 12.9019 121.26 13.0738 121.122 13.2801C120.813 13.6926 120.573 14.1739 120.332 14.7067C119.68 16.0303 119.061 17.3366 118.632 18.7632C118.46 19.2789 118.391 19.7946 118.288 20.3274C118.254 20.3962 118.254 20.4305 118.254 20.5337C118.288 20.4993 118.323 20.4993 118.357 20.4649C119.68 19.5023 120.985 18.4882 122.136 17.285C122.926 16.4256 123.63 15.4458 124.248 14.4489C124.729 13.727 125.176 12.9535 125.64 12.1972C125.777 11.9909 125.949 11.9566 126.121 11.9909C126.602 12.0597 126.945 12.3003 127.289 12.6097C127.357 12.6785 127.426 12.7816 127.46 12.8847C127.598 13.091 127.598 13.2629 127.495 13.4691C126.739 14.9989 126.069 16.5803 125.485 18.2132C125.004 19.4852 124.661 20.8431 124.523 22.201C124.455 22.6135 124.455 23.026 124.42 23.4042C124.42 23.4385 124.455 23.4729 124.455 23.5417C124.489 23.5073 124.523 23.4729 124.558 23.4729C125.107 23.0604 125.52 22.5791 125.949 22.0463C126.773 21.015 127.581 20.0008 128.371 19.0039L131.48 15.0505C131.445 15.0333 133.73 15.9787 132.424 17.4569ZM150.82 17.1819C148.707 18.282 146.011 19.1586 146.011 19.1586C145.427 20.1899 144.808 21.204 144.07 22.1666C143.554 22.8198 142.97 23.3698 142.232 23.7995C141.854 24.0401 141.476 24.212 140.978 24.1777C140.36 24.1089 139.81 23.9714 139.381 23.4901C139.175 23.2838 139.071 23.0432 139.071 22.7682C139.037 21.7025 139.346 20.7571 139.965 19.9321C140.343 19.4508 140.858 19.1414 141.459 18.9351C141.665 18.8664 141.871 18.7976 142.077 18.7289C142.146 18.7289 142.73 18.5226 143.64 18.2132C143.812 18.1445 143.984 18.0757 144.19 17.9726C144.224 17.9726 144.293 17.9382 144.293 17.8694C144.843 16.9069 145.255 15.8584 145.513 14.7927C145.581 14.552 145.581 14.277 145.616 14.002C145.65 13.9332 145.616 13.8989 145.616 13.7957C145.444 13.8645 145.272 13.9332 145.135 14.002C144.585 14.2426 144.104 14.5864 143.64 14.8958C142.85 15.4802 142.146 16.185 141.459 16.8725C139.243 19.1586 137.405 21.6853 135.928 24.3839C135.207 25.6902 134.606 27.0138 134.193 28.4061C133.987 29.0248 133.884 29.6608 133.747 30.2796C133.575 31.0015 133.438 31.7406 133.266 32.4626C133.232 32.6345 133.129 32.772 132.957 32.8407C132.442 33.047 131.961 33.047 131.428 32.8751C131.394 32.8407 131.359 32.8063 131.325 32.8063C131.188 32.7032 131.119 32.6001 131.153 32.4626C131.188 32.1188 131.222 31.8094 131.291 31.4656C131.462 30.2968 131.772 29.1452 132.081 27.9763C132.356 26.945 132.596 25.8621 132.871 24.7964C133.558 22.201 134.503 19.6742 135.636 17.2163C136.392 15.5146 137.199 13.8301 138.161 12.1972C138.367 11.819 138.642 11.4409 138.917 11.0627C139.054 10.8565 139.192 10.8221 139.467 10.8909C139.638 10.9596 139.81 11.0628 139.947 11.1659C140.222 11.3721 140.428 11.5784 140.531 11.8878C140.6 12.0941 140.566 12.2659 140.428 12.4378C140.085 12.816 139.879 13.2285 139.638 13.6926C138.848 15.188 138.144 16.7006 137.457 18.2648V18.2992C137.457 18.2992 137.457 18.2991 137.457 18.3335C137.629 18.0929 137.8 17.8866 137.972 17.646C139.037 16.374 140.188 15.1536 141.493 14.0536C142.112 13.5379 142.747 13.0566 143.469 12.6613C143.846 12.4894 144.259 12.3175 144.722 12.2831C145.306 12.2488 145.822 12.455 146.285 12.8332C146.904 13.3488 147.213 14.002 147.247 14.8099C147.316 15.6693 147.041 16.649 146.904 17.1303C148.003 16.7178 149.429 15.9271 150.82 15.1193C150.854 15.0333 152.074 16.4943 150.82 17.1819ZM143.039 20.0524C143.005 20.0524 143.005 20.0524 143.005 20.0524C142.593 20.1899 142.215 20.3618 141.94 20.6712C141.665 21.0493 141.493 21.4275 141.322 21.84C141.287 22.0119 141.253 22.1838 141.218 22.3557C141.957 21.7197 142.49 20.8946 143.039 20.0524ZM163.513 16.7006C162.689 17.4225 159.46 18.8836 158.429 18.7804C157.639 19.8805 156.694 20.8259 155.595 21.6166C155.045 21.9947 154.461 22.3041 153.791 22.4416C153.07 22.6135 152.366 22.5447 151.679 22.3385C151.473 22.2697 151.232 22.201 150.992 22.0978C150.167 21.7197 149.669 21.1009 149.497 20.1899C149.326 19.4336 149.394 18.6945 149.566 17.9726C149.944 16.4428 150.665 15.1021 151.679 13.8817C152.16 13.2973 152.744 12.7816 153.482 12.455C153.86 12.2831 154.238 12.1456 154.702 12.18C155.08 12.18 155.423 12.2831 155.732 12.5238C156.076 12.7644 156.351 13.0394 156.591 13.3832C156.625 13.4176 156.694 13.452 156.763 13.452C157.381 13.4176 157.931 13.6582 158.463 14.0364C159.185 14.5864 159.494 15.3427 159.425 16.2881C159.425 16.4943 159.356 16.7694 159.288 17.01C159.288 17.01 161.984 15.738 162.946 14.9989C162.963 15.0333 164.269 16.0131 163.513 16.7006ZM156.179 18.5742C155.629 18.4367 155.114 18.1616 154.65 17.8522C154.341 17.6116 154.066 17.3366 153.86 16.9584C153.757 16.7522 153.688 16.5115 153.757 16.2709C153.791 16.099 153.826 15.9615 153.929 15.7896C154.341 15.0333 154.891 14.3286 155.664 13.8473C155.664 13.8473 155.664 13.8473 155.698 13.8129C155.629 13.7786 155.561 13.7785 155.526 13.7785C155.32 13.8129 155.148 13.8473 154.977 13.9161C154.186 14.1911 153.551 14.7067 153.07 15.3427C152.52 16.0303 152.108 16.8037 151.747 17.5944C151.404 18.4538 151.198 19.3305 151.267 20.2587C151.267 20.5681 151.335 20.8774 151.473 21.1525C151.541 21.2556 151.61 21.3243 151.679 21.3587C151.919 21.4619 152.194 21.4962 152.469 21.4275C152.915 21.3243 153.328 21.1181 153.706 20.8774C154.633 20.293 155.44 19.5195 156.127 18.6601C156.145 18.6429 156.179 18.6085 156.179 18.5742ZM157.673 14.7927C157.536 14.8614 157.398 14.9302 157.261 14.9989C156.78 15.274 156.402 15.6521 156.041 16.099C155.835 16.374 155.629 16.649 155.526 16.9928C155.457 17.1991 155.492 17.2678 155.698 17.3366C155.732 17.371 155.732 17.371 155.801 17.371C156.145 17.4397 156.488 17.5085 156.866 17.4741C156.9 17.4741 156.935 17.4397 156.935 17.4397C157.278 16.8209 157.553 16.2365 157.69 15.5318C157.742 15.3255 157.708 15.0677 157.673 14.7927ZM171.844 17.3538C171.603 18.2476 171.397 19.1586 171.397 20.0868C171.397 20.4649 171.431 20.8087 171.466 21.1868C171.466 21.1868 171.5 21.2212 171.5 21.2556C171.672 21.0837 177.031 15.0333 177.031 15.0333C177.031 15.0333 178.422 15.7896 177.89 16.5631C177.546 17.01 174.197 21.1696 173.767 21.6509C173.458 21.9947 173.149 22.3041 172.771 22.5791C172.221 22.9916 171.603 23.0604 170.933 22.8885C170.006 22.6822 169.508 22.0291 169.301 21.1525C169.164 20.4993 169.13 19.8805 169.198 19.2101C169.233 19.0039 169.267 18.832 169.267 18.6257C168.889 19.0383 168.546 19.4508 168.168 19.8805C167.584 20.4993 166.965 21.1181 166.261 21.6166C165.815 21.926 165.368 22.201 164.87 22.3728C164.217 22.5791 163.616 22.5104 162.998 22.2697C162.483 22.0635 162.036 21.7541 161.71 21.3072C161.4 20.8259 161.332 20.2758 161.366 19.7086C161.435 18.7804 161.71 17.9038 162.019 17.01C162.637 15.3427 163.547 13.8301 164.715 12.4722C165.059 12.0941 165.402 11.7503 165.849 11.4753C166.364 11.1315 166.914 11.0627 167.549 11.269C168.237 11.544 168.803 11.9909 169.319 12.541C169.628 12.8504 169.868 13.1941 170.04 13.6067C170.074 13.6067 170.074 13.641 170.074 13.6754C170.212 13.4692 170.349 13.2629 170.487 13.0566C170.899 12.3691 171.345 11.4925 171.74 10.7705C172.015 10.2549 172.599 8.82822 172.96 8.00317C173.784 5.92335 174.094 5.27019 174.832 3.36225C175.45 1.69496 175.691 1.1793 176.052 0.285491C176.223 -0.0582811 176.43 -0.0239028 176.67 0.0448516C177.151 0.18236 177.426 0.388621 177.735 0.76677C177.872 0.938656 177.941 1.21367 177.872 1.38556C176.91 3.98104 176.103 6.02649 175.038 8.7251C174.489 10.1518 173.767 11.7675 173.166 13.366C172.72 14.7239 172.187 16.0131 171.844 17.3538ZM169.353 14.8614C169.25 14.7583 169.147 14.6552 169.044 14.5864C168.803 14.3801 168.666 14.1395 168.632 13.8301C168.563 13.452 168.391 13.1082 168.082 12.7988C168.013 12.7644 167.945 12.73 167.876 12.7644C167.67 12.8676 167.498 12.9363 167.361 13.0394C167.086 13.2801 166.811 13.5207 166.57 13.7957C165.214 15.2911 164.286 17.01 163.771 18.9523C163.633 19.468 163.53 20.018 163.53 20.6196C163.565 20.7915 163.599 20.9634 163.599 21.1696C163.839 21.0321 164.046 20.929 164.252 20.7915C164.973 20.3102 165.557 19.7258 166.158 19.0554C167.154 17.9898 168.03 16.8381 168.855 15.6349C169.009 15.3943 169.181 15.1021 169.353 14.8614ZM188.247 17.0444C187.491 17.9382 185.722 19.6055 185.722 19.6055C185.413 19.8805 184.794 20.4305 184.468 20.7056C183.609 21.4275 182.664 22.0119 181.668 22.476C181.187 22.6823 180.706 22.8541 180.174 22.8198C179.59 22.7854 179.075 22.5791 178.542 22.3041C177.786 21.8572 177.22 21.2384 176.876 20.4305C176.533 19.6055 176.292 18.7289 176.326 17.8351C176.326 16.5459 176.704 15.3771 177.46 14.3458C178.216 13.3488 179.229 12.6097 180.329 12.0597C180.981 11.7159 181.72 11.4409 182.476 11.3034C183.506 11.0971 184.348 11.4753 184.966 12.3003C185.344 12.7472 185.378 13.2629 185.138 13.8301C184.932 14.2426 184.657 14.5864 184.348 14.9302C183.764 15.5833 183.145 16.2193 182.407 16.7006C182.132 16.9413 181.788 17.1475 181.445 17.285C181.136 17.4225 180.414 17.56 179.848 17.2163C179.092 16.6662 179.195 16.2881 179.023 16.0474C178.645 16.6662 178.405 17.3538 178.302 18.1273C178.233 18.8836 178.37 19.6227 178.645 20.3446C178.817 20.7571 178.989 21.1353 179.332 21.4447C179.401 21.5134 179.47 21.5134 179.573 21.479C180.157 21.3072 180.672 20.9978 181.17 20.6884C181.96 20.1383 182.699 19.5195 183.386 18.8836C183.592 18.6773 184.142 18.196 184.348 18.0241L187.56 15.0505C187.577 15.0333 189.037 16.0474 188.247 17.0444ZM179.143 15.8412C179.315 15.8412 179.727 15.8412 179.727 15.8412C180.277 15.7037 180.552 15.4974 180.861 15.2568C181.651 14.638 182.218 14.0879 182.836 13.3145C182.871 13.2801 182.905 13.2457 182.939 13.2113C182.939 13.1769 182.939 13.1769 182.905 13.1769C182.768 13.2457 182.596 13.2801 182.458 13.3488C181.565 13.7614 180.758 14.2083 180.037 14.8442C179.693 15.1364 179.418 15.4974 179.143 15.8412ZM198.621 16.8725C197.625 17.8694 195.444 17.5944 194.568 17.2163C193.949 16.9069 193.468 16.5287 193.331 15.7896C193.262 15.4802 193.262 15.1708 193.262 14.8614C193.262 14.5864 193.296 14.3458 193.262 14.0707C193.193 14.1739 193.125 14.2426 193.022 14.3801C192.232 15.4458 191.424 16.4944 190.703 17.56C189.501 19.3305 188.453 21.1525 187.525 23.0948C187.525 23.1635 187.491 23.2323 187.457 23.301C187.388 23.5073 187.216 23.6104 186.976 23.6448C186.426 23.6448 185.911 23.4729 185.447 23.0948C185.275 22.9229 185.241 22.751 185.31 22.5104C185.825 20.7399 186.34 19.0211 186.873 17.285C187.457 15.3427 188.041 13.452 188.607 11.4753C188.676 11.3034 188.985 11.2346 189.157 11.3034C189.672 11.4753 190.119 11.7503 190.359 12.2316C190.497 12.4035 190.531 12.6097 190.462 12.816C190.291 13.4004 190.119 13.9504 189.947 14.6552C190.188 14.3458 190.359 14.0364 190.6 13.7614C191.012 13.2457 191.424 12.6957 191.957 12.2316C192.163 12.0597 192.369 11.8878 192.575 11.7503C192.953 11.4753 193.331 11.4753 193.743 11.6472C194.293 11.8534 194.739 12.1972 195.014 12.7129C195.152 12.9879 195.22 13.2629 195.22 13.5379C195.255 14.1567 195.255 14.8442 195.255 15.4802C195.255 15.4802 196.474 16.099 198.466 15.0333C198.484 15.0333 199.549 15.9443 198.621 16.8725Z" fill="#E5E5E5"/>
</svg>
