<svg fill="none" xmlns="http://www.w3.org/2000/svg" viewBox="0 0 168 168">
  <path d="M157.795 75.9107C134.934 115.987 83.8321 129.836 43.6588 106.836 23.8741 95.5106 10.4575 77.3446 4.6418 57.0959-8.0353 94.2862 7.0165 136.537 42.4706 156.85c40.1733 23 91.2755 9.15 114.1355-30.926 11.604-20.339 13.67-43.5374 7.691-64.4472-1.673 4.9063-3.829 9.7794-6.502 14.4339Z" fill="#C9AD87"/>
  <path d="M85.8039 2.1832 90.857 14.526l.1707.417.4324-.1265 12.8009-3.745-6.4998 11.6464-.2195.3934.3685.2592 10.9088 7.673-13.1577 2.1798-.4444.0737.0271.4497.8026 13.313-9.908-8.9281-.3347-.3016-.3348.3016-9.908 8.9281.8026-13.313.0272-.4497-.4445-.0737-13.1579-2.1798 10.909-7.673.3685-.2592-.2195-.3934-6.4995-11.6464 12.8006 3.745.4324.1265.1707-.417 5.0532-12.3428Z" stroke="#000"/>
  <path d="m85.7894 18.0659 1.4945 3.6505.1707.4169.4324-.1265 3.7859-1.1076-1.9223 3.4445-.2195.3935.3685.2592 3.2264 2.2693-3.8915.6447-.4445.0737.0271.4497.2374 3.9375-2.9304-2.6406-.3347-.3016-.3347.3016-2.9305 2.6406.2374-3.9375.0272-.4497-.4445-.0737-3.8916-.6447 3.2265-2.2693.3685-.2592-.2196-.3935-1.9223-3.4445 3.7859 1.1076.4325.1265.1707-.4169 1.4945-3.6505Z" fill="#000" stroke="#000"/>
  <circle cx="84.9851" cy="68.4073" r="12.8655" fill="#FFE6CB" stroke="#C9AD87"/>
  <circle cx="84.9855" cy="97.3547" r="6.4328" fill="#2E3439"/>
</svg>
