<svg width="408" height="550" viewBox="0 0 408 550" fill="none" xmlns="http://www.w3.org/2000/svg">
<path d="M403.162 484.63C402.532 480.467 401.438 476.231 399.862 472.328C397.694 466.94 394.95 462.053 389.834 459.042C385.348 456.422 380.38 454.806 375.431 453.301C375.023 451.87 374.633 450.421 374.244 448.971C372.316 441.539 367.256 434.905 362.51 429.07C356.412 421.563 342.805 396.032 338.097 387.54C335.928 383.657 333.648 379.736 330.497 376.558C329.199 375.239 327.809 374.031 326.382 372.861C326.419 372.619 326.382 372.359 326.27 372.154C326.048 371.671 325.807 371.188 325.603 370.705C325.362 369.163 325.065 367.472 324.75 365.669C324.732 365.577 324.713 365.502 324.713 365.409C324.658 365.056 324.583 364.703 324.528 364.35C324.472 364.053 324.417 363.755 324.361 363.44C324.342 363.291 324.305 363.142 324.287 363.012C323.434 358.144 322.433 352.718 321.488 347.608C321.414 347.088 321.358 346.549 321.284 346.029C320.394 340.361 319.059 334.768 318.151 329.082C318.04 328.395 317.929 327.707 317.799 327.019C316.538 318.286 315.241 304.164 314.277 296.453C312.368 281.011 312.924 270.55 308.067 255.684C306.028 249.441 303.322 243.327 298.65 238.608C296.593 236.527 294.294 234.706 291.829 233.126C291.476 232.81 291.124 232.494 290.753 232.216C289.808 231.528 288.64 231.175 287.602 230.692C286.749 230.283 285.971 229.707 285.1 229.335C284.265 228.982 283.302 228.927 282.449 228.685C280.41 228.072 278.371 227.626 276.276 227.217C273.57 226.678 270.845 226.53 268.101 226.325C267.564 226.269 267.026 226.214 266.488 226.158C266.377 226.139 266.247 226.121 266.136 226.121C265.246 226.009 264.338 225.898 263.448 225.768C263.319 225.749 263.207 225.731 263.078 225.712C262.373 225.582 261.669 225.452 260.964 225.378C258.796 225.006 254.995 224.374 252.975 223.687C243.669 220.453 239.832 215.678 239.276 214.842C237.756 212.482 237.052 212.054 235.161 207.465C234.215 204.975 233.585 202.355 233.289 199.679C232.973 196.873 232.881 194.012 233.122 191.187C233.326 188.864 233.159 185.204 234.753 183.346C234.864 183.216 234.883 183.048 234.827 182.918C236.403 180.15 237.849 177.028 238.979 173.813C238.905 174.854 238.59 175.894 238.683 176.935C238.757 177.901 238.868 178.83 239.054 179.778C239.48 181.896 239.61 184.238 240.37 186.282C241.334 188.827 243.095 190.778 246.005 190.593C248.526 190.425 249.045 187.266 248.86 185.297C248.378 180.205 246.672 175.3 246.283 170.171C245.82 164.244 246.913 158.353 248.47 152.649C249.193 149.992 249.991 147.353 250.843 144.714C251.399 142.968 252.159 141.202 252.326 139.363C252.586 136.576 251.64 132.711 248.47 131.856C248.248 131.8 248.026 131.763 247.822 131.744C247.951 131.094 247.766 130.295 247.451 129.775C248.637 128.437 248.656 126.709 247.914 125.111C248.248 124.813 248.526 124.442 248.711 123.996C249.138 123.011 249.175 121.58 248.656 120.558C248.656 120.484 248.637 120.409 248.637 120.335C249.564 120.205 250.51 118.588 250.713 117.92C251.029 116.823 250.992 115.207 250.176 114.278C250.639 113.943 250.954 112.94 251.029 112.587C251.084 112.271 251.121 111.899 251.121 111.527C251.214 111.212 251.288 110.914 251.195 110.561C251.14 110.394 251.047 110.245 250.917 110.097C250.769 109.706 250.565 109.353 250.213 109.13C250.176 109.112 250.139 109.093 250.102 109.112C250.788 107.978 250.676 105.879 250.324 104.987C250.269 104.838 250.176 104.652 250.046 104.429C250.065 104.411 250.083 104.392 250.102 104.373C251.473 102.348 251.195 99.7466 249.286 98.2787C249.657 97.2009 249.583 95.9931 249.119 94.934C248.934 94.5437 248.47 93.5217 247.896 93.6147C248.619 91.7007 246.895 88.0959 244.93 88.1145C244.948 88.0216 244.948 87.9286 244.948 87.8172C244.893 87.0367 244.67 86.3492 244.225 85.6988C243.632 84.8255 242.668 84.3795 241.649 84.2495C241.742 83.2832 241.278 82.4099 240.518 81.8153C239.999 81.4065 239.035 80.9233 238.294 81.072C238.201 80.7747 238.016 80.496 237.849 80.1615C237.515 79.474 237.107 78.8979 236.477 78.452C235.476 77.7459 234.067 77.1698 232.992 77.8574C232.38 75.5161 228.432 73.2119 226.875 74.8471C226.727 74.0109 226.226 73.3048 225.318 72.766C226.133 72.3758 226.782 71.6696 227.097 70.7963C227.69 69.124 227.023 67.4702 225.707 66.3553C225.262 65.9837 224.706 65.612 224.131 65.3705C225.559 64.1998 225.596 61.3382 224.298 60.0561C224.094 59.8517 223.872 59.6659 223.631 59.4801C225.003 58.551 224.391 55.931 223.594 54.816C223.39 54.5373 222.797 54.0728 222.092 53.7011C223.204 52.8835 222.741 50.598 222.018 49.6503C221.369 48.7956 220.424 48.1266 219.293 48.2195C218.904 48.2567 218.422 48.2939 218.144 48.5354C218.144 47.1975 217.569 45.8039 216.457 45.0049C215.623 44.3917 214.14 44.0758 212.861 44.2802C212.379 43.2582 211.489 42.6264 210.432 42.3291C211.99 40.4152 213.547 38.7057 214.344 36.2715C215.234 33.5772 215.901 30.6598 215.734 27.7982C215.493 23.5802 213.324 19.5294 210.822 16.0174C210.191 14.5867 209.45 13.193 208.653 11.7994C207.337 9.53243 205.78 7.20971 204.908 4.73835C204.575 3.7721 204.278 2.80585 204.019 1.8396C203.741 2.80585 203.463 3.7721 203.129 4.73835C202.258 7.22829 200.701 9.53243 199.384 11.7994C198.587 13.193 197.846 14.5867 197.216 16.0174C194.713 19.5108 192.544 23.5802 192.303 27.7982C192.136 30.6598 192.804 33.5772 193.694 36.2715C194.491 38.6871 196.048 40.4152 197.605 42.3291C196.548 42.6264 195.658 43.2582 195.176 44.2802C193.897 44.0758 192.414 44.4103 191.58 45.0049C190.468 45.8039 189.912 47.2161 189.912 48.5354C189.634 48.2939 189.152 48.2381 188.763 48.2195C187.632 48.1266 186.687 48.7956 186.038 49.6503C185.333 50.598 184.851 52.8835 185.982 53.7011C185.278 54.0542 184.666 54.5373 184.481 54.816C183.702 55.9124 183.09 58.5324 184.444 59.4801C184.221 59.6473 183.98 59.8517 183.776 60.0561C182.479 61.3196 182.516 64.1998 183.943 65.3705C183.368 65.612 182.812 65.9837 182.367 66.3553C181.033 67.4702 180.365 69.124 180.959 70.7963C181.274 71.6696 181.923 72.3758 182.738 72.766C181.811 73.3048 181.311 74.0109 181.181 74.8471C179.624 73.2119 175.676 75.5161 175.064 77.8574C173.989 77.1513 172.58 77.7459 171.579 78.452C170.949 78.8979 170.541 79.474 170.207 80.1615C170.04 80.4774 169.855 80.7747 169.762 81.072C169.021 80.9233 168.057 81.4065 167.538 81.8153C166.778 82.4099 166.314 83.2832 166.407 84.2495C165.387 84.3981 164.424 84.8441 163.83 85.6988C163.385 86.3492 163.163 87.0367 163.107 87.8172C163.107 87.9286 163.107 88.0216 163.126 88.1145C161.161 88.0773 159.419 91.6822 160.16 93.6147C159.585 93.5217 159.122 94.5437 158.937 94.934C158.473 95.9931 158.399 97.1823 158.77 98.2787C156.86 99.7466 156.582 102.348 157.954 104.373C157.973 104.392 157.991 104.411 158.01 104.429C157.899 104.652 157.806 104.838 157.732 104.987C157.38 105.86 157.268 107.96 157.954 109.112C157.899 109.112 157.861 109.112 157.824 109.13C157.491 109.353 157.268 109.688 157.12 110.097C156.99 110.245 156.898 110.394 156.842 110.561C156.749 110.914 156.805 111.212 156.916 111.527C156.916 111.899 156.953 112.271 157.009 112.587C157.064 112.94 157.398 113.962 157.843 114.278C157.027 115.207 156.99 116.823 157.305 117.92C157.491 118.588 158.436 120.224 159.382 120.335C159.382 120.409 159.363 120.484 159.363 120.558C158.844 121.58 158.9 123.011 159.307 123.996C159.493 124.423 159.771 124.795 160.104 125.111C159.382 126.727 159.4 128.455 160.568 129.775C160.253 130.295 160.067 131.075 160.197 131.744C159.993 131.763 159.771 131.8 159.548 131.856C156.379 132.711 155.433 136.557 155.693 139.363C155.878 141.202 156.619 142.968 157.176 144.714C158.01 147.334 158.807 149.973 159.548 152.649C161.087 158.353 162.181 164.244 161.736 170.171C161.346 175.3 159.622 180.205 159.159 185.297C158.974 187.248 159.493 190.425 162.014 190.593C164.924 190.778 166.704 188.846 167.649 186.282C168.409 184.256 168.539 181.896 168.965 179.778C169.151 178.83 169.262 177.901 169.336 176.935C169.429 175.894 169.113 174.854 169.039 173.813C170.189 177.047 171.616 180.15 173.192 182.918C173.136 183.048 173.136 183.216 173.266 183.346C174.86 185.204 174.712 188.864 174.897 191.187C175.138 193.993 175.045 196.873 174.73 199.679C174.434 202.355 173.803 204.975 172.858 207.465C170.949 212.054 170.263 212.482 168.743 214.842C168.205 215.678 164.368 220.453 155.044 223.687C153.023 224.393 149.223 225.006 147.054 225.378C146.35 225.452 145.646 225.563 144.941 225.712C144.811 225.731 144.7 225.749 144.57 225.768C143.681 225.898 142.772 226.009 141.883 226.121C141.771 226.139 141.642 226.158 141.53 226.158C140.993 226.214 140.455 226.269 139.918 226.325C137.193 226.511 134.449 226.678 131.743 227.217C129.648 227.626 127.609 228.072 125.57 228.685C124.717 228.945 123.753 229.001 122.919 229.335C122.048 229.688 121.269 230.283 120.417 230.692C119.379 231.194 118.211 231.547 117.265 232.216C116.876 232.494 116.524 232.81 116.19 233.126C113.725 234.687 111.426 236.527 109.369 238.608C104.697 243.327 101.991 249.441 99.9518 255.684C95.0951 270.55 95.6512 281.011 93.7419 296.453C92.778 304.164 91.4989 318.286 90.2198 327.019C90.0901 327.707 89.9603 328.395 89.8677 329.082C88.9779 334.749 87.6247 340.361 86.7534 346.029C86.6793 346.549 86.6051 347.088 86.5495 347.608C85.6041 352.718 84.6031 358.144 83.7504 363.012C83.7319 363.161 83.6948 363.31 83.6763 363.44C83.6207 363.737 83.5651 364.053 83.5095 364.35C83.4538 364.703 83.3797 365.056 83.3241 365.409C83.3055 365.502 83.287 365.577 83.287 365.669C82.9719 367.472 82.6938 369.181 82.4343 370.705C82.2119 371.188 81.9894 371.671 81.767 372.154C81.6743 372.359 81.6187 372.619 81.6557 372.861C80.2284 374.031 78.8381 375.239 77.5405 376.558C74.3892 379.736 72.0906 383.657 69.9403 387.54C65.2319 396.032 51.6258 421.563 45.5271 429.07C40.7631 434.923 35.721 441.539 33.7931 448.971C33.4224 450.421 33.0146 451.851 32.6068 453.301C27.6574 454.806 22.6895 456.422 18.2035 459.042C13.0688 462.053 10.3438 466.921 8.17498 472.328C6.59933 476.249 5.50565 480.486 4.87539 484.63C4.33781 488.197 2.03922 491.189 1.90946 494.942C1.85385 496.466 1.90946 498.027 2.13191 499.513C2.40996 501.483 2.26167 503.62 3.00315 505.515C4.04122 508.191 5.06076 510.57 5.59833 513.487C6.37689 517.594 6.69202 521.7 8.08229 525.658C9.2872 529.096 11.4746 532.366 13.9771 534.986C19.1489 540.412 27.1569 543.794 34.238 545.763C38.0196 546.823 41.8938 547.213 45.8051 547.473C53.2199 548.012 61.024 548.644 68.4018 547.529C73.4068 546.767 78.4118 546.953 83.3982 546.061C87.8286 545.243 92.1848 544.128 96.5039 542.846C96.5966 542.92 96.6893 542.976 96.819 543.032C99.9147 544.128 103.641 543.236 106.773 542.697C111.352 541.917 115.838 540.895 120.491 540.821C123.809 540.746 126.311 541.211 129.111 539.947C129.092 540.059 129.148 540.17 129.277 540.245C134.338 542.995 141.03 544.072 146.721 542.958C147.425 542.827 148.111 542.642 148.797 542.437C148.982 542.382 149.168 542.307 149.353 542.251C149.835 542.084 150.317 541.917 150.799 541.731C151.04 541.638 151.299 541.527 151.54 541.415C151.948 541.248 152.356 541.081 152.745 540.895C153.06 540.746 153.357 540.616 153.672 540.468C153.839 540.393 154.006 540.319 154.173 540.245C154.469 540.263 154.747 540.282 155.044 540.3C155.47 540.337 155.897 540.356 156.323 540.375C156.619 540.393 156.898 540.393 157.194 540.412C158.399 540.449 159.622 540.486 160.827 540.542C160.846 540.542 160.864 540.542 160.883 540.542C161.754 540.579 162.607 540.635 163.46 540.709C165.091 540.876 166.704 541.118 168.316 541.378C171.412 540.207 174.823 539.52 177.77 538.87C180.217 538.331 182.126 538.349 184.221 538.684C188.318 536.788 192.544 535.097 195.64 531.623C197.234 529.857 198.773 527.981 200.497 526.438C200.626 526.197 200.775 525.955 200.904 525.714C200.979 525.584 201.053 525.472 201.108 525.342C201.238 525.416 201.368 525.509 201.498 525.602C202.295 524.989 203.129 524.469 204.037 524.06C204.946 524.469 205.798 524.989 206.595 525.602C206.725 525.528 206.855 525.435 206.985 525.342C207.04 525.472 207.133 525.584 207.188 525.714C207.318 525.955 207.467 526.197 207.596 526.438C209.32 527.981 210.859 529.857 212.453 531.623C215.549 535.097 219.775 536.788 223.872 538.684C225.966 538.349 227.876 538.331 230.323 538.87C233.27 539.52 236.662 540.189 239.777 541.378C241.389 541.118 243.002 540.876 244.633 540.709C245.486 540.635 246.339 540.579 247.21 540.542C247.228 540.542 247.247 540.542 247.266 540.542C248.489 540.486 249.694 540.449 250.899 540.412C251.195 540.393 251.473 540.393 251.77 540.375C252.196 540.356 252.623 540.319 253.049 540.3C253.346 540.282 253.624 540.263 253.92 540.245C254.087 540.319 254.254 540.393 254.421 540.468C254.736 540.616 255.033 540.765 255.348 540.895C255.756 541.081 256.163 541.248 256.553 541.415C256.794 541.527 257.053 541.62 257.294 541.731C257.776 541.917 258.258 542.084 258.74 542.251C258.925 542.307 259.111 542.382 259.278 542.437C259.945 542.642 260.649 542.827 261.354 542.958C267.045 544.072 273.736 542.995 278.797 540.245C278.927 540.17 278.964 540.059 278.964 539.947C281.744 541.211 284.247 540.765 287.584 540.821C292.236 540.914 296.741 541.936 301.301 542.697C304.452 543.236 308.16 544.128 311.255 543.032C311.385 542.976 311.496 542.92 311.57 542.846C315.89 544.128 320.246 545.243 324.676 546.061C329.663 546.971 334.668 546.767 339.673 547.529C347.05 548.644 354.854 547.993 362.269 547.473C366.162 547.194 370.055 546.804 373.836 545.763C380.936 543.794 388.944 540.412 394.097 534.986C396.6 532.366 398.787 529.096 399.992 525.658C401.382 521.7 401.716 517.575 402.476 513.487C403.032 510.57 404.033 508.191 405.071 505.515C405.813 503.62 405.646 501.483 405.943 499.513C406.165 498.027 406.221 496.466 406.165 494.942C405.998 491.189 403.7 488.197 403.162 484.63ZM81.9894 373.455C82.1006 373.567 82.1933 373.715 82.2675 373.883C81.7855 374.031 81.3221 374.198 80.8587 374.421C81.2294 374.106 81.6001 373.79 81.9894 373.455ZM149.835 380.014C149.835 380.572 149.835 381.148 149.816 381.705C149.798 382.133 149.779 382.56 149.761 382.988C149.724 383.526 149.705 384.084 149.668 384.641C149.631 385.069 149.594 385.515 149.557 385.942C149.557 385.961 149.557 385.998 149.557 386.016C149.409 386.035 149.26 386.109 149.186 386.258C149.093 386.295 149.001 386.351 148.927 386.444C148.76 386.63 148.593 386.815 148.426 387.02C148.185 387.038 147.963 387.15 147.796 387.429C147.499 387.93 147.203 388.562 146.943 389.212C145.701 391.517 144.997 394.211 144.923 396.701C144.886 397.816 145.071 398.726 145.442 399.451C143.625 400.603 143.44 403.52 144.441 405.471C144.459 405.527 144.496 405.583 144.533 405.639C144.515 406.754 144.459 407.738 144.237 408.686C143.996 409.318 143.773 409.931 143.532 410.544C143.366 410.86 143.18 411.176 142.958 411.492C141.808 413.109 140.529 414.614 139.399 416.23C139.009 416.806 138.676 417.438 138.453 418.088C135.654 420.43 132.002 418.237 128.629 418.869C126.905 419.185 125.867 419.891 124.384 420.764C122.623 421.805 120.417 422.195 118.544 423.013C115.263 424.462 112.353 426.227 108.905 427.305C108.164 427.528 107.385 427.77 106.607 427.992C106.125 428.141 105.624 428.271 105.142 428.42C104.734 428.531 104.327 428.661 103.937 428.791C103.548 428.903 103.177 429.014 102.806 429.145C102.473 429.256 102.158 429.349 101.824 429.46C101.731 429.498 101.657 429.516 101.583 429.535C101.602 429.535 101.62 429.535 101.657 429.516C101.045 429.721 100.415 429.944 99.822 430.185C99.4513 430.185 99.0991 430.204 98.7283 430.204C98.7469 430.204 98.7469 430.204 98.7654 430.204C97.3381 430.204 95.9107 430.222 94.4648 430.278C91.7214 430.389 88.811 430.798 86.29 431.969C83.0275 433.474 80.1913 435.685 76.9659 437.246C75.4644 437.971 73.8702 438.528 72.2575 439.03C72.5355 438.751 72.7951 438.454 73.0546 438.175C77.9113 433.028 82.8977 428.215 88.4032 423.626C98.7283 415.004 109.165 404.617 113.558 392.111C113.558 392.111 113.577 392.111 113.577 392.093C113.595 392.018 113.614 391.963 113.632 391.888C113.706 391.665 113.799 391.442 113.873 391.201C113.892 391.126 113.892 391.033 113.873 390.978C115.486 385.124 116.969 379.271 118.248 373.288C119.119 369.163 120.398 365.149 121.603 361.117C122.901 356.787 123.809 352.383 124.866 348.017C125.589 345.007 126.46 342.015 127.461 339.098C127.535 338.893 127.609 338.689 127.683 338.466C127.943 337.704 128.221 336.942 128.499 336.199C128.721 335.641 128.944 335.084 129.166 334.508C129.314 334.118 129.463 333.727 129.63 333.337C130.723 330.699 131.947 328.116 133.281 325.589C134.19 326.462 135.135 327.298 136.118 328.097C136.173 328.264 136.247 328.45 136.303 328.618C136.396 328.952 136.525 329.268 136.692 329.584C137.767 332.167 139.176 334.545 140.437 337.128C142.086 340.51 143.254 344.263 144.348 347.85C146.813 356.044 148.834 364.517 149.575 373.065C149.65 374.013 149.724 374.96 149.761 375.927C149.779 376.261 149.779 376.595 149.779 376.93C149.798 377.562 149.816 378.175 149.816 378.807C149.835 379.215 149.835 379.606 149.835 380.014ZM326.011 373.455C326.382 373.771 326.771 374.087 327.142 374.421C326.678 374.198 326.215 374.031 325.733 373.883C325.825 373.715 325.918 373.585 326.011 373.455ZM331.034 437.246C327.809 435.685 324.973 433.474 321.71 431.969C319.189 430.798 316.279 430.389 313.535 430.278C312.108 430.222 310.681 430.204 309.235 430.204C309.253 430.204 309.253 430.204 309.272 430.204C308.901 430.204 308.549 430.185 308.178 430.185C307.585 429.944 306.973 429.721 306.343 429.516C306.362 429.516 306.399 429.516 306.417 429.535C306.343 429.516 306.25 429.479 306.176 429.46C305.861 429.349 305.527 429.256 305.194 429.145C304.823 429.033 304.434 428.903 304.063 428.791C303.655 428.661 303.247 428.55 302.858 428.42C302.358 428.271 301.876 428.141 301.394 427.992C300.615 427.77 299.855 427.547 299.095 427.305C295.647 426.227 292.737 424.443 289.456 423.013C287.584 422.195 285.378 421.805 283.617 420.764C282.134 419.891 281.096 419.185 279.372 418.869C276.016 418.237 272.346 420.43 269.547 418.088C269.325 417.438 269.009 416.806 268.602 416.23C267.471 414.595 266.173 413.109 265.043 411.492C264.82 411.176 264.635 410.86 264.468 410.544C264.245 409.931 264.004 409.318 263.763 408.686C263.541 407.738 263.485 406.754 263.467 405.639C263.485 405.583 263.522 405.527 263.56 405.471C264.542 403.539 264.375 400.603 262.559 399.451C262.929 398.726 263.115 397.816 263.078 396.701C262.985 394.211 262.299 391.517 261.057 389.212C260.798 388.544 260.501 387.93 260.204 387.429C260.056 387.15 259.815 387.038 259.574 387.02C259.407 386.815 259.24 386.63 259.092 386.444C258.999 386.351 258.925 386.295 258.833 386.258C258.759 386.109 258.61 386.054 258.462 386.016C258.462 385.998 258.462 385.961 258.462 385.942C258.425 385.515 258.388 385.069 258.351 384.641C258.314 384.084 258.295 383.545 258.258 382.988C258.239 382.56 258.221 382.133 258.202 381.705C258.184 381.129 258.184 380.572 258.184 380.014C258.184 379.606 258.165 379.215 258.165 378.807C258.165 378.175 258.184 377.562 258.221 376.93C258.221 376.595 258.239 376.261 258.258 375.927C258.295 374.96 258.369 374.013 258.443 373.065C259.185 364.517 261.205 356.044 263.671 347.85C264.764 344.263 265.951 340.491 267.582 337.128C268.843 334.545 270.251 332.167 271.327 329.584C271.493 329.268 271.605 328.952 271.697 328.618C271.772 328.45 271.827 328.264 271.883 328.097C272.865 327.317 273.811 326.462 274.719 325.589C276.054 328.116 277.277 330.699 278.371 333.337C278.538 333.727 278.686 334.118 278.834 334.508C279.057 335.065 279.298 335.623 279.501 336.199C279.779 336.942 280.058 337.704 280.317 338.466C280.391 338.689 280.465 338.893 280.539 339.098C281.54 342.034 282.412 345.007 283.135 348.017C284.191 352.402 285.118 356.787 286.416 361.117C287.621 365.149 288.881 369.181 289.771 373.288C291.031 379.271 292.514 385.124 294.146 390.978C294.127 391.052 294.127 391.126 294.146 391.201C294.22 391.424 294.312 391.647 294.387 391.888C294.405 391.944 294.424 392.018 294.442 392.093C294.442 392.093 294.461 392.093 294.461 392.111C298.854 404.635 309.272 415.004 319.616 423.626C325.103 428.215 330.108 433.01 334.964 438.175C335.224 438.473 335.502 438.751 335.761 439.03C334.149 438.528 332.554 437.989 331.034 437.246Z" fill="#FCDDD6" stroke="#C8AC86" stroke-width="2" stroke-miterlimit="10" stroke-linecap="round" stroke-linejoin="round"/>
</svg>
